<svg width="44" height="98" viewBox="0 0 44 98" fill="none" xmlns="http://www.w3.org/2000/svg">
<path d="M25.7419 3.96087C30.4466 3.51698 40.7412 3.82627 42.4668 9.25929C44.0372 14.2039 36.8652 13.5077 33.1043 10.5671L25.2692 5.83149C24.4424 5.11843 39.3836 10.8846 41.0124 14.6641C42.3451 17.7564 38.9503 20.4003 35.7467 18.8892C34.5734 18.3357 30.7857 16.3495 24.0406 7.66416C23.7014 7.22744 32.3782 12.9555 33.9394 21.8002C34.4402 24.6375 32.5451 26.469 27.752 20.2365C22.9588 14.004 21.8034 9.50326 22.188 9.7984C23.7819 10.5584 24.3829 14.4398 21.5459 25.6651C20.6004 29.4063 17.5297 28.3383 17.0565 21.9729C16.5833 15.6075 17.5232 10.4346 17.6967 10.9596C18.3039 12.797 17.6769 18.67 10.3111 27.4631C8.96624 29.0685 7.32852 28.6169 7.9771 25.1893C8.88939 20.3681 13.9521 10.2746 14.5295 10.7715C15.2112 11.3582 6.1792 22.2137 3.94966 23.5591C1.67765 24.9302 0.961727 23.2184 1.10973 22.076C1.68584 17.6291 12.4694 8.44297 12.0017 9.52029C10.7126 10.9867 8.11152 14.6157 3.63964 18.1228C-0.992371 21.7556 0.840985 14.3091 4.16131 11.2128C5.48827 9.97544 8.01217 7.13428 10.6023 7.78886C12.3033 8.32699 15.7198 9.81701 17.7362 9.59181C19.7526 9.3666 22.9954 8.16534 23.7196 6.51145C24.323 5.13312 24.7387 2.11527 21.5737 1.07044C18.4087 0.0256211 15.3574 1.43846 14.2273 2.27549C13.1094 3.06454 11.5916 5.08547 13.2059 7.52838C14.36 9.27481 17.4138 8.70007 19.6827 8.5529C22.4016 8.37654 33.7641 34.0027 2.9327 97.2417" stroke="#67568C"/>
</svg>
