<svg width="312" height="608" viewBox="0 0 312 608" fill="none" xmlns="http://www.w3.org/2000/svg">
<path opacity="0.4" d="M69.4301 62.2593C89.263 37.6908 138.783 -10.0924 172.816 7.01032C203.789 22.5756 166.991 53.622 135.378 57.8834L76.1689 73.2496C68.9007 73.8756 166.199 29.3384 191.873 39.1874C212.88 47.2457 209.68 75.8171 187.504 84.0842C179.382 87.1119 152.208 95.9549 79.1989 87.677C75.5278 87.2608 143.41 72.5008 192.99 106.312C208.894 117.157 208.808 134.766 156.637 128.601C104.467 122.436 77.5527 106.957 80.7591 106.495C91.8316 102.42 113.196 117.66 153.634 183.611C167.112 205.591 147.675 215.291 115.028 187.848C82.3815 160.405 62.0321 131.771 65.3521 133.391C76.9719 139.062 102.13 169.468 109.802 245.725C111.203 259.647 101.401 265.371 88.0376 246.274C69.2408 219.413 44.6014 148.1 49.6721 147.658C55.659 147.136 65.4186 240.985 61.4475 257.925C57.4008 275.188 45.8745 270.623 41.1023 264.584C22.5264 241.076 28.9239 146.643 31.8927 153.907C32.889 166.914 38.1037 196.287 34.0054 234.038C29.7603 273.14 2.70809 229.623 3.3975 199.296C3.67302 187.177 1.8654 161.849 17.0826 152.518C27.5939 146.896 50.663 137.512 58.996 126.819C67.329 116.126 76.7181 95.0136 72.1888 83.8326C68.4141 74.5147 55.9233 58.4435 36.1569 68.7022C16.3906 78.9608 8.90681 100.145 7.63573 109.455C6.19187 118.483 8.77268 135.172 27.9876 138.853C41.7243 141.484 53.2274 124.199 63.1118 112.663C74.9566 98.8389 250.521 164.095 409.038 606.642" stroke="#67568C" stroke-width="6.6816"/>
</svg>
