<svg width="339" height="608" viewBox="0 0 339 608" fill="none" xmlns="http://www.w3.org/2000/svg">
<path opacity="0.4" d="M268.741 62.2593C248.908 37.6908 199.387 -10.0924 165.355 7.01032C134.382 22.5756 171.18 53.622 202.793 57.8834L262.002 73.2496C269.27 73.8756 171.972 29.3384 146.297 39.1874C125.291 47.2457 128.491 75.8171 150.667 84.0842C158.789 87.1119 185.963 95.9549 258.972 87.677C262.643 87.2608 194.761 72.5008 145.181 106.312C129.277 117.157 129.362 134.766 181.533 128.601C233.704 122.436 260.618 106.957 257.412 106.495C246.339 102.42 224.975 117.66 184.537 183.611C171.059 205.591 190.496 215.291 223.143 187.848C255.789 160.405 276.139 131.771 272.819 133.391C261.199 139.062 236.041 169.468 228.369 245.725C226.968 259.647 236.77 265.371 250.133 246.274C268.93 219.413 293.569 148.1 288.499 147.658C282.512 147.136 272.752 240.985 276.723 257.925C280.77 275.188 292.296 270.623 297.069 264.584C315.644 241.076 309.247 146.643 306.278 153.907C305.282 166.914 300.067 196.287 304.166 234.038C308.411 273.14 335.463 229.623 334.773 199.296C334.498 187.177 336.306 161.849 321.088 152.518C310.577 146.896 287.508 137.512 279.175 126.819C270.842 116.126 261.453 95.0136 265.982 83.8326C269.757 74.5147 282.248 58.4435 302.014 68.7022C321.78 78.9608 329.264 100.145 330.535 109.455C331.979 118.483 329.398 135.172 310.183 138.853C296.447 141.484 284.943 124.199 275.059 112.663C263.214 98.8389 87.6495 164.095 -70.867 606.642" stroke="#67568C" stroke-width="6.6816"/>
</svg>
