<svg width="616" height="7" viewBox="0 0 616 7" fill="none" xmlns="http://www.w3.org/2000/svg">
<path d="M5.56 5.42C5.4 5.42 5.26667 5.37333 5.16 5.28C4.94667 5.10667 4.88667 4.88667 4.98 4.62C4.98 4.60667 5.02667 4.44667 5.12 4.14C5.22667 3.83333 5.34667 3.48667 5.48 3.1C5.54667 2.87333 5.60667 2.68 5.66 2.52C5.71333 2.34667 5.76 2.19333 5.8 2.06C5.44 2.19333 5 2.36 4.48 2.56C3.96 2.74667 3.41333 2.94667 2.84 3.16C2.28 3.37333 1.73333 3.58 1.2 3.78C1.05333 3.83333 0.906667 3.82667 0.76 3.76C0.6 3.68 0.486667 3.56 0.42 3.4C0.366667 3.25333 0.38 3.10667 0.46 2.96C0.526667 2.8 0.64 2.68667 0.8 2.62C1.4 2.40667 2.02 2.18667 2.66 1.96C3.3 1.72 3.89333 1.5 4.44 1.3C4.98667 1.08667 5.43333 0.913333 5.78 0.78C6.12667 0.646666 6.3 0.579999 6.3 0.579999C6.36667 0.566666 6.43333 0.56 6.5 0.56C6.56667 0.546667 6.62667 0.553333 6.68 0.579999C6.86667 0.606666 7 0.713333 7.08 0.899999C7.14667 1.00667 7.17333 1.14667 7.16 1.32C7.16 1.48 7.12667 1.71333 7.06 2.02C7.02 2.19333 6.96667 2.38667 6.9 2.6C6.84667 2.8 6.77333 3.03333 6.68 3.3C6.66667 3.35333 6.65333 3.4 6.64 3.44C6.62667 3.48 6.61333 3.52667 6.6 3.58C7.13333 3.28667 7.78667 2.98 8.56 2.66C8.70667 2.59333 8.85333 2.59333 9 2.66C9.16 2.71333 9.26667 2.81333 9.32 2.96C9.4 3.10667 9.40667 3.26 9.34 3.42C9.27333 3.58 9.16667 3.69333 9.02 3.76C8.42 4.02667 7.88 4.28 7.4 4.52C6.93333 4.76 6.56 4.95333 6.28 5.1C6 5.24667 5.86 5.32 5.86 5.32C5.78 5.38667 5.68 5.42 5.56 5.42ZM11.2134 4.82C11.1468 4.82 11.0934 4.81333 11.0534 4.8C10.8401 4.74667 10.6868 4.66667 10.5934 4.56C10.5134 4.44 10.4601 4.34667 10.4334 4.28C10.3401 3.98667 10.3734 3.68667 10.5334 3.38C10.6934 3.06 10.9001 2.72667 11.1534 2.38C11.2334 2.27333 11.3068 2.16 11.3734 2.04C11.4534 1.90667 11.5201 1.79333 11.5734 1.7C11.5868 1.68667 11.6068 1.66 11.6334 1.62C11.5534 1.64667 11.4534 1.68667 11.3334 1.74C11.2268 1.79333 11.1001 1.87333 10.9534 1.98C10.7134 2.12667 10.4601 2.32 10.1934 2.56C9.92677 2.78667 9.65344 3.02667 9.37344 3.28C9.30677 3.33333 9.23344 3.39333 9.15344 3.46C9.08677 3.52667 9.0201 3.59333 8.95344 3.66C8.83344 3.76667 8.69344 3.82 8.53344 3.82C8.3601 3.80667 8.2201 3.73333 8.11344 3.6C7.99344 3.48 7.9401 3.34 7.95344 3.18C7.96677 3.00667 8.03344 2.86667 8.15344 2.76C8.2201 2.69333 8.29344 2.62667 8.37344 2.56C8.4401 2.49333 8.50677 2.43333 8.57344 2.38C9.0001 1.99333 9.4201 1.64 9.83344 1.32C10.2468 0.986667 10.6534 0.733333 11.0534 0.56C11.4534 0.386666 11.8401 0.353333 12.2134 0.46C12.4401 0.513333 12.6001 0.606667 12.6934 0.74C12.8001 0.86 12.8601 0.966666 12.8734 1.06C12.9934 1.35333 12.9668 1.66667 12.7934 2C12.6201 2.32 12.4001 2.67333 12.1334 3.06C12.1068 3.08667 12.0734 3.13333 12.0334 3.2C12.0068 3.25333 11.9734 3.30667 11.9334 3.36C12.1334 3.28 12.3934 3.18 12.7134 3.06C13.0334 2.94 13.4201 2.79333 13.8734 2.62C14.0468 2.56667 14.2068 2.58 14.3534 2.66C14.5001 2.72667 14.6001 2.84 14.6534 3C14.7201 3.14667 14.7134 3.3 14.6334 3.46C14.5668 3.60667 14.4601 3.71333 14.3134 3.78C13.8868 3.92667 13.5001 4.06 13.1534 4.18C12.8068 4.3 12.5134 4.40667 12.2734 4.5C12.1401 4.55333 12.0201 4.6 11.9134 4.64C11.8201 4.66667 11.7334 4.69333 11.6534 4.72C11.5601 4.74667 11.4801 4.77333 11.4134 4.8C11.3468 4.81333 11.2801 4.82 11.2134 4.82ZM20.8613 5.22C20.7679 5.22 20.6813 5.20667 20.6013 5.18C20.3479 5.12667 20.1679 4.97333 20.0613 4.72C19.9813 4.49333 20.0013 4.24 20.1213 3.96C20.2546 3.68 20.4279 3.36667 20.6413 3.02C20.7213 2.9 20.7946 2.78 20.8613 2.66C20.9413 2.52667 21.0079 2.40667 21.0613 2.3C21.0879 2.26 21.1079 2.22667 21.1213 2.2C21.1346 2.16 21.1479 2.12667 21.1613 2.1C20.7613 2.03333 20.2946 2.02 19.7613 2.06C19.2413 2.08667 18.6546 2.18667 18.0013 2.36C17.4279 2.50667 16.8079 2.7 16.1413 2.94C15.4879 3.16667 14.7946 3.44 14.0613 3.76C13.9146 3.81333 13.7679 3.81333 13.6213 3.76C13.4746 3.70667 13.3679 3.60667 13.3013 3.46C13.2213 3.31333 13.2146 3.16 13.2813 3C13.3479 2.82667 13.4546 2.71333 13.6013 2.66C14.3479 2.32667 15.0613 2.04 15.7413 1.8C16.4346 1.54667 17.0879 1.34667 17.7013 1.2C19.3413 0.786666 20.6813 0.72 21.7213 1C22.0279 1.08 22.2413 1.26667 22.3613 1.56C22.4813 1.85333 22.4546 2.18 22.2813 2.54C22.1079 2.9 21.9013 3.27333 21.6613 3.66C21.6479 3.68667 21.6279 3.72 21.6013 3.76C21.5746 3.8 21.5479 3.84667 21.5213 3.9C21.8279 3.83333 22.2813 3.7 22.8813 3.5C23.4813 3.3 24.3079 3.00667 25.3613 2.62C25.5079 2.56667 25.6546 2.58 25.8013 2.66C25.9613 2.72667 26.0679 2.84 26.1213 3C26.1879 3.14667 26.1879 3.3 26.1213 3.46C26.0546 3.60667 25.9346 3.71333 25.7613 3.78C25.1479 3.99333 24.5879 4.18667 24.0813 4.36C23.5746 4.53333 23.1213 4.68 22.7213 4.8C22.1879 4.96 21.7813 5.07333 21.5013 5.14C21.2213 5.19333 21.0079 5.22 20.8613 5.22ZM39.4652 5.42C39.3052 5.42 39.1718 5.37333 39.0652 5.28C38.8518 5.10667 38.7918 4.88667 38.8852 4.62C38.8852 4.60667 38.9318 4.44667 39.0252 4.14C39.1318 3.83333 39.2518 3.48667 39.3852 3.1C39.4518 2.87333 39.5118 2.68 39.5652 2.52C39.6185 2.34667 39.6652 2.19333 39.7052 2.06C39.3452 2.19333 38.9052 2.36 38.3852 2.56C37.8652 2.74667 37.3185 2.94667 36.7452 3.16C36.1852 3.37333 35.6385 3.58 35.1052 3.78C34.9585 3.83333 34.8118 3.82667 34.6652 3.76C34.5052 3.68 34.3918 3.56 34.3252 3.4C34.2718 3.25333 34.2852 3.10667 34.3652 2.96C34.4318 2.8 34.5452 2.68667 34.7052 2.62C35.3052 2.40667 35.9252 2.18667 36.5652 1.96C37.2052 1.72 37.7985 1.5 38.3452 1.3C38.8918 1.08667 39.3385 0.913333 39.6852 0.78C40.0318 0.646666 40.2052 0.579999 40.2052 0.579999C40.2718 0.566666 40.3385 0.56 40.4052 0.56C40.4718 0.546667 40.5318 0.553333 40.5852 0.579999C40.7718 0.606666 40.9052 0.713333 40.9852 0.899999C41.0518 1.00667 41.0785 1.14667 41.0652 1.32C41.0652 1.48 41.0318 1.71333 40.9652 2.02C40.9252 2.19333 40.8718 2.38667 40.8052 2.6C40.7518 2.8 40.6785 3.03333 40.5852 3.3C40.5718 3.35333 40.5585 3.4 40.5452 3.44C40.5318 3.48 40.5185 3.52667 40.5052 3.58C41.0385 3.28667 41.6918 2.98 42.4652 2.66C42.6118 2.59333 42.7585 2.59333 42.9052 2.66C43.0652 2.71333 43.1718 2.81333 43.2252 2.96C43.3052 3.10667 43.3118 3.26 43.2452 3.42C43.1785 3.58 43.0718 3.69333 42.9252 3.76C42.3252 4.02667 41.7852 4.28 41.3052 4.52C40.8385 4.76 40.4652 4.95333 40.1852 5.1C39.9052 5.24667 39.7652 5.32 39.7652 5.32C39.6852 5.38667 39.5852 5.42 39.4652 5.42ZM44.0586 6.56C43.9653 6.56 43.8719 6.54667 43.7786 6.52C43.6853 6.50667 43.5919 6.49333 43.4986 6.48C43.2586 6.41333 43.0919 6.27333 42.9986 6.06C42.8786 5.79333 42.8786 5.47333 42.9986 5.1C43.1319 4.71333 43.3453 4.22 43.6386 3.62C43.6919 3.51333 43.7453 3.39333 43.7986 3.26C43.8653 3.12667 43.9253 3 43.9786 2.88C43.8053 2.94667 43.6186 3.06 43.4186 3.22C43.2319 3.36667 43.0386 3.52 42.8386 3.68C42.7053 3.77333 42.5586 3.81333 42.3986 3.8C42.2253 3.77333 42.0853 3.7 41.9786 3.58C41.8853 3.44667 41.8519 3.3 41.8786 3.14C41.8919 2.98 41.9586 2.84 42.0786 2.72C42.2653 2.58667 42.4586 2.44 42.6586 2.28C42.8719 2.12 43.0853 1.98667 43.2986 1.88C43.8453 1.6 44.3453 1.52667 44.7986 1.66C45.0119 1.7 45.1719 1.83333 45.2786 2.06C45.3853 2.27333 45.3786 2.54 45.2586 2.86C45.1519 3.18 44.9653 3.61333 44.6986 4.16C44.6319 4.32 44.5586 4.48 44.4786 4.64C44.4119 4.8 44.3453 4.95333 44.2786 5.1C44.2653 5.15333 44.2453 5.2 44.2186 5.24C44.2053 5.28 44.1919 5.32 44.1786 5.36C44.4586 5.32 44.8653 5.18 45.3986 4.94C45.9453 4.68667 46.6786 4.19333 47.5986 3.46C48.0919 3.07333 48.5386 2.7 48.9386 2.34C49.3386 1.96667 49.6586 1.66 49.8986 1.42C50.1386 1.18 50.2586 1.06 50.2586 1.06C50.4186 0.873333 50.6119 0.813333 50.8386 0.88C50.9453 0.893333 51.0319 0.94 51.0986 1.02C51.1653 1.08667 51.2186 1.15333 51.2586 1.22C51.3519 1.40667 51.3586 1.62667 51.2786 1.88C51.2119 2.12 51.0653 2.51333 50.8386 3.06C50.7586 3.23333 50.6786 3.40667 50.5986 3.58C50.5319 3.75333 50.4653 3.91333 50.3986 4.06C50.3853 4.11333 50.3719 4.16 50.3586 4.2C50.3586 4.22667 50.3519 4.25333 50.3386 4.28C50.5919 4.24 50.8586 4.13333 51.1386 3.96C51.4319 3.77333 51.7119 3.56667 51.9786 3.34C52.2586 3.11333 52.4919 2.92 52.6786 2.76C52.8119 2.64 52.9586 2.58667 53.1186 2.6C53.2786 2.61333 53.4186 2.68 53.5386 2.8C53.6453 2.93333 53.6919 3.08 53.6786 3.24C53.6786 3.4 53.6119 3.54 53.4786 3.66C53.0653 4.02 52.6386 4.36 52.1986 4.68C51.7719 5 51.3386 5.24 50.8986 5.4C50.4719 5.54667 50.0386 5.56667 49.5986 5.46C49.3853 5.36667 49.2319 5.23333 49.1386 5.06C49.0586 4.87333 49.0319 4.66667 49.0586 4.44C49.0986 4.21333 49.1786 3.93333 49.2986 3.6C49.1519 3.73333 48.9986 3.86 48.8386 3.98C48.6919 4.1 48.5319 4.23333 48.3586 4.38C46.5186 5.83333 45.0853 6.56 44.0586 6.56ZM55.4031 6.6C55.3365 6.6 55.2698 6.59333 55.2031 6.58C55.1365 6.58 55.0631 6.57333 54.9831 6.56C54.8231 6.50667 54.6898 6.39333 54.5831 6.22C54.5298 6.11333 54.5031 5.96667 54.5031 5.78C54.5031 5.59333 54.5631 5.28667 54.6831 4.86C54.8031 4.43333 54.9965 3.8 55.2631 2.96C54.9698 3.06667 54.6298 3.19333 54.2431 3.34C53.8698 3.48667 53.4831 3.63333 53.0831 3.78C52.9365 3.83333 52.7898 3.82667 52.6431 3.76C52.4831 3.68 52.3698 3.56 52.3031 3.4C52.2498 3.25333 52.2631 3.10667 52.3431 2.96C52.4098 2.8 52.5231 2.68667 52.6831 2.62C53.2565 2.40667 53.7898 2.20667 54.2831 2.02C54.7898 1.83333 55.2031 1.68 55.5231 1.56C55.8431 1.44 56.0031 1.38 56.0031 1.38C56.1365 1.32667 56.2631 1.32 56.3831 1.36C56.5565 1.4 56.6831 1.5 56.7631 1.66C56.8298 1.78 56.8498 1.88667 56.8231 1.98C56.8098 2.07333 56.7898 2.17333 56.7631 2.28C56.7365 2.33333 56.7165 2.39333 56.7031 2.46C56.6898 2.51333 56.6698 2.58 56.6431 2.66C56.5498 2.88667 56.4498 3.16667 56.3431 3.5C56.2498 3.82 56.1498 4.14667 56.0431 4.48C55.9765 4.66667 55.9231 4.82667 55.8831 4.96C55.8431 5.09333 55.8098 5.21333 55.7831 5.32C56.0365 5.26667 56.4031 5.11333 56.8831 4.86C57.2965 4.63333 57.7365 4.37333 58.2031 4.08C58.6831 3.77333 59.1698 3.45333 59.6631 3.12C59.7698 3.05333 59.8765 2.98667 59.9831 2.92C60.1031 2.85333 60.2098 2.78 60.3031 2.7C60.4498 2.60667 60.6031 2.58 60.7631 2.62C60.9365 2.64667 61.0698 2.73333 61.1631 2.88C61.2565 3.01333 61.2831 3.16 61.2431 3.32C61.2165 3.48 61.1298 3.60667 60.9831 3.7C60.8765 3.78 60.7631 3.86 60.6431 3.94C60.5365 4.00667 60.4231 4.08 60.3031 4.16C59.7965 4.49333 59.3031 4.81333 58.8231 5.12C58.3431 5.42667 57.8898 5.69333 57.4631 5.92C56.5965 6.37333 55.9098 6.6 55.4031 6.6ZM65.0161 5.42C64.8561 5.42 64.7228 5.37333 64.6161 5.28C64.4028 5.10667 64.3428 4.88667 64.4361 4.62C64.4361 4.60667 64.4828 4.44667 64.5761 4.14C64.6828 3.83333 64.8028 3.48667 64.9361 3.1C65.0028 2.87333 65.0628 2.68 65.1161 2.52C65.1694 2.34667 65.2161 2.19333 65.2561 2.06C64.8961 2.19333 64.4561 2.36 63.9361 2.56C63.4161 2.74667 62.8694 2.94667 62.2961 3.16C61.7361 3.37333 61.1894 3.58 60.6561 3.78C60.5094 3.83333 60.3628 3.82667 60.2161 3.76C60.0561 3.68 59.9428 3.56 59.8761 3.4C59.8228 3.25333 59.8361 3.10667 59.9161 2.96C59.9828 2.8 60.0961 2.68667 60.2561 2.62C60.8561 2.40667 61.4761 2.18667 62.1161 1.96C62.7561 1.72 63.3494 1.5 63.8961 1.3C64.4428 1.08667 64.8894 0.913333 65.2361 0.78C65.5828 0.646666 65.7561 0.579999 65.7561 0.579999C65.8228 0.566666 65.8894 0.56 65.9561 0.56C66.0228 0.546667 66.0828 0.553333 66.1361 0.579999C66.3228 0.606666 66.4561 0.713333 66.5361 0.899999C66.6028 1.00667 66.6294 1.14667 66.6161 1.32C66.6161 1.48 66.5828 1.71333 66.5161 2.02C66.4761 2.19333 66.4228 2.38667 66.3561 2.6C66.3028 2.8 66.2294 3.03333 66.1361 3.3C66.1228 3.35333 66.1094 3.4 66.0961 3.44C66.0828 3.48 66.0694 3.52667 66.0561 3.58C66.5894 3.28667 67.2428 2.98 68.0161 2.66C68.1628 2.59333 68.3094 2.59333 68.4561 2.66C68.6161 2.71333 68.7228 2.81333 68.7761 2.96C68.8561 3.10667 68.8628 3.26 68.7961 3.42C68.7294 3.58 68.6228 3.69333 68.4761 3.76C67.8761 4.02667 67.3361 4.28 66.8561 4.52C66.3894 4.76 66.0161 4.95333 65.7361 5.1C65.4561 5.24667 65.3161 5.32 65.3161 5.32C65.2361 5.38667 65.1361 5.42 65.0161 5.42ZM79.1161 6.56C79.0228 6.56 78.9294 6.54667 78.8361 6.52C78.7428 6.50667 78.6494 6.49333 78.5561 6.48C78.3161 6.41333 78.1494 6.27333 78.0561 6.06C77.9361 5.79333 77.9361 5.47333 78.0561 5.1C78.1894 4.71333 78.4028 4.22 78.6961 3.62C78.7494 3.51333 78.8028 3.39333 78.8561 3.26C78.9228 3.12667 78.9828 3 79.0361 2.88C78.8628 2.94667 78.6761 3.06 78.4761 3.22C78.2894 3.36667 78.0961 3.52 77.8961 3.68C77.7628 3.77333 77.6161 3.81333 77.4561 3.8C77.2828 3.77333 77.1428 3.7 77.0361 3.58C76.9428 3.44667 76.9094 3.3 76.9361 3.14C76.9494 2.98 77.0161 2.84 77.1361 2.72C77.3228 2.58667 77.5161 2.44 77.7161 2.28C77.9294 2.12 78.1428 1.98667 78.3561 1.88C78.9028 1.6 79.4028 1.52667 79.8561 1.66C80.0694 1.7 80.2294 1.83333 80.3361 2.06C80.4428 2.27333 80.4361 2.54 80.3161 2.86C80.2094 3.18 80.0228 3.61333 79.7561 4.16C79.6894 4.32 79.6161 4.48 79.5361 4.64C79.4694 4.8 79.4028 4.95333 79.3361 5.1C79.3228 5.15333 79.3028 5.2 79.2761 5.24C79.2628 5.28 79.2494 5.32 79.2361 5.36C79.5161 5.32 79.9228 5.18 80.4561 4.94C81.0028 4.68667 81.7361 4.19333 82.6561 3.46C83.1494 3.07333 83.5961 2.7 83.9961 2.34C84.3961 1.96667 84.7161 1.66 84.9561 1.42C85.1961 1.18 85.3161 1.06 85.3161 1.06C85.4761 0.873333 85.6694 0.813333 85.8961 0.88C86.0028 0.893333 86.0894 0.94 86.1561 1.02C86.2228 1.08667 86.2761 1.15333 86.3161 1.22C86.4094 1.40667 86.4161 1.62667 86.3361 1.88C86.2694 2.12 86.1228 2.51333 85.8961 3.06C85.8161 3.23333 85.7361 3.40667 85.6561 3.58C85.5894 3.75333 85.5228 3.91333 85.4561 4.06C85.4428 4.11333 85.4294 4.16 85.4161 4.2C85.4161 4.22667 85.4094 4.25333 85.3961 4.28C85.6494 4.24 85.9161 4.13333 86.1961 3.96C86.4894 3.77333 86.7694 3.56667 87.0361 3.34C87.3161 3.11333 87.5494 2.92 87.7361 2.76C87.8694 2.64 88.0161 2.58667 88.1761 2.6C88.3361 2.61333 88.4761 2.68 88.5961 2.8C88.7028 2.93333 88.7494 3.08 88.7361 3.24C88.7361 3.4 88.6694 3.54 88.5361 3.66C88.1228 4.02 87.6961 4.36 87.2561 4.68C86.8294 5 86.3961 5.24 85.9561 5.4C85.5294 5.54667 85.0961 5.56667 84.6561 5.46C84.4428 5.36667 84.2894 5.23333 84.1961 5.06C84.1161 4.87333 84.0894 4.66667 84.1161 4.44C84.1561 4.21333 84.2361 3.93333 84.3561 3.6C84.2094 3.73333 84.0561 3.86 83.8961 3.98C83.7494 4.1 83.5894 4.23333 83.4161 4.38C81.5761 5.83333 80.1428 6.56 79.1161 6.56ZM94.9606 5.22C94.8673 5.22 94.7806 5.20667 94.7006 5.18C94.4473 5.12667 94.2673 4.97333 94.1606 4.72C94.0806 4.49333 94.1006 4.24 94.2206 3.96C94.354 3.68 94.5273 3.36667 94.7406 3.02C94.8206 2.9 94.894 2.78 94.9606 2.66C95.0406 2.52667 95.1073 2.40667 95.1606 2.3C95.1873 2.26 95.2073 2.22667 95.2206 2.2C95.234 2.16 95.2473 2.12667 95.2606 2.1C94.8606 2.03333 94.394 2.02 93.8606 2.06C93.3406 2.08667 92.754 2.18667 92.1006 2.36C91.5273 2.50667 90.9073 2.7 90.2406 2.94C89.5873 3.16667 88.894 3.44 88.1606 3.76C88.014 3.81333 87.8673 3.81333 87.7206 3.76C87.574 3.70667 87.4673 3.60667 87.4006 3.46C87.3206 3.31333 87.314 3.16 87.3806 3C87.4473 2.82667 87.554 2.71333 87.7006 2.66C88.4473 2.32667 89.1606 2.04 89.8406 1.8C90.534 1.54667 91.1873 1.34667 91.8006 1.2C93.4406 0.786666 94.7806 0.72 95.8206 1C96.1273 1.08 96.3406 1.26667 96.4606 1.56C96.5806 1.85333 96.554 2.18 96.3806 2.54C96.2073 2.9 96.0006 3.27333 95.7606 3.66C95.7473 3.68667 95.7273 3.72 95.7006 3.76C95.674 3.8 95.6473 3.84667 95.6206 3.9C95.9273 3.83333 96.3806 3.7 96.9806 3.5C97.5806 3.3 98.4073 3.00667 99.4606 2.62C99.6073 2.56667 99.754 2.58 99.9006 2.66C100.061 2.72667 100.167 2.84 100.221 3C100.287 3.14667 100.287 3.3 100.221 3.46C100.154 3.60667 100.034 3.71333 99.8606 3.78C99.2473 3.99333 98.6873 4.18667 98.1806 4.36C97.674 4.53333 97.2206 4.68 96.8206 4.8C96.2873 4.96 95.8806 5.07333 95.6006 5.14C95.3206 5.19333 95.1073 5.22 94.9606 5.22ZM116.025 5.22C115.931 5.22 115.845 5.20667 115.765 5.18C115.511 5.12667 115.331 4.97333 115.225 4.72C115.145 4.49333 115.165 4.24 115.285 3.96C115.418 3.68 115.591 3.36667 115.805 3.02C115.885 2.9 115.958 2.78 116.025 2.66C116.105 2.52667 116.171 2.40667 116.225 2.3C116.251 2.26 116.271 2.22667 116.285 2.2C116.298 2.16 116.311 2.12667 116.325 2.1C115.925 2.03333 115.458 2.02 114.925 2.06C114.405 2.08667 113.818 2.18667 113.165 2.36C112.591 2.50667 111.971 2.7 111.305 2.94C110.651 3.16667 109.958 3.44 109.225 3.76C109.078 3.81333 108.931 3.81333 108.785 3.76C108.638 3.70667 108.531 3.60667 108.465 3.46C108.385 3.31333 108.378 3.16 108.445 3C108.511 2.82667 108.618 2.71333 108.765 2.66C109.511 2.32667 110.225 2.04 110.905 1.8C111.598 1.54667 112.251 1.34667 112.865 1.2C114.505 0.786666 115.845 0.72 116.885 1C117.191 1.08 117.405 1.26667 117.525 1.56C117.645 1.85333 117.618 2.18 117.445 2.54C117.271 2.9 117.065 3.27333 116.825 3.66C116.811 3.68667 116.791 3.72 116.765 3.76C116.738 3.8 116.711 3.84667 116.685 3.9C116.991 3.83333 117.445 3.7 118.045 3.5C118.645 3.3 119.471 3.00667 120.525 2.62C120.671 2.56667 120.818 2.58 120.965 2.66C121.125 2.72667 121.231 2.84 121.285 3C121.351 3.14667 121.351 3.3 121.285 3.46C121.218 3.60667 121.098 3.71333 120.925 3.78C120.311 3.99333 119.751 4.18667 119.245 4.36C118.738 4.53333 118.285 4.68 117.885 4.8C117.351 4.96 116.945 5.07333 116.665 5.14C116.385 5.19333 116.171 5.22 116.025 5.22ZM127.582 5.22C127.489 5.22 127.402 5.20667 127.322 5.18C127.069 5.12667 126.889 4.97333 126.782 4.72C126.702 4.49333 126.722 4.24 126.842 3.96C126.975 3.68 127.149 3.36667 127.362 3.02C127.442 2.9 127.515 2.78 127.582 2.66C127.662 2.52667 127.729 2.40667 127.782 2.3C127.809 2.26 127.829 2.22667 127.842 2.2C127.855 2.16 127.869 2.12667 127.882 2.1C127.482 2.03333 127.015 2.02 126.482 2.06C125.962 2.08667 125.375 2.18667 124.722 2.36C124.149 2.50667 123.529 2.7 122.862 2.94C122.209 3.16667 121.515 3.44 120.782 3.76C120.635 3.81333 120.489 3.81333 120.342 3.76C120.195 3.70667 120.089 3.60667 120.022 3.46C119.942 3.31333 119.935 3.16 120.002 3C120.069 2.82667 120.175 2.71333 120.322 2.66C121.069 2.32667 121.782 2.04 122.462 1.8C123.155 1.54667 123.809 1.34667 124.422 1.2C126.062 0.786666 127.402 0.72 128.442 1C128.749 1.08 128.962 1.26667 129.082 1.56C129.202 1.85333 129.175 2.18 129.002 2.54C128.829 2.9 128.622 3.27333 128.382 3.66C128.369 3.68667 128.349 3.72 128.322 3.76C128.295 3.8 128.269 3.84667 128.242 3.9C128.549 3.83333 129.002 3.7 129.602 3.5C130.202 3.3 131.029 3.00667 132.082 2.62C132.229 2.56667 132.375 2.58 132.522 2.66C132.682 2.72667 132.789 2.84 132.842 3C132.909 3.14667 132.909 3.3 132.842 3.46C132.775 3.60667 132.655 3.71333 132.482 3.78C131.869 3.99333 131.309 4.18667 130.802 4.36C130.295 4.53333 129.842 4.68 129.442 4.8C128.909 4.96 128.502 5.07333 128.222 5.14C127.942 5.19333 127.729 5.22 127.582 5.22ZM134.779 4.82C134.713 4.82 134.659 4.81333 134.619 4.8C134.406 4.74667 134.253 4.66667 134.159 4.56C134.079 4.44 134.026 4.34667 133.999 4.28C133.906 3.98667 133.939 3.68667 134.099 3.38C134.259 3.06 134.466 2.72667 134.719 2.38C134.799 2.27333 134.873 2.16 134.939 2.04C135.019 1.90667 135.086 1.79333 135.139 1.7C135.153 1.68667 135.173 1.66 135.199 1.62C135.119 1.64667 135.019 1.68667 134.899 1.74C134.793 1.79333 134.666 1.87333 134.519 1.98C134.279 2.12667 134.026 2.32 133.759 2.56C133.493 2.78667 133.219 3.02667 132.939 3.28C132.873 3.33333 132.799 3.39333 132.719 3.46C132.653 3.52667 132.586 3.59333 132.519 3.66C132.399 3.76667 132.259 3.82 132.099 3.82C131.926 3.80667 131.786 3.73333 131.679 3.6C131.559 3.48 131.506 3.34 131.519 3.18C131.533 3.00667 131.599 2.86667 131.719 2.76C131.786 2.69333 131.859 2.62667 131.939 2.56C132.006 2.49333 132.073 2.43333 132.139 2.38C132.566 1.99333 132.986 1.64 133.399 1.32C133.813 0.986667 134.219 0.733333 134.619 0.56C135.019 0.386666 135.406 0.353333 135.779 0.46C136.006 0.513333 136.166 0.606667 136.259 0.74C136.366 0.86 136.426 0.966666 136.439 1.06C136.559 1.35333 136.533 1.66667 136.359 2C136.186 2.32 135.966 2.67333 135.699 3.06C135.673 3.08667 135.639 3.13333 135.599 3.2C135.573 3.25333 135.539 3.30667 135.499 3.36C135.699 3.28 135.959 3.18 136.279 3.06C136.599 2.94 136.986 2.79333 137.439 2.62C137.613 2.56667 137.773 2.58 137.919 2.66C138.066 2.72667 138.166 2.84 138.219 3C138.286 3.14667 138.279 3.3 138.199 3.46C138.133 3.60667 138.026 3.71333 137.879 3.78C137.453 3.92667 137.066 4.06 136.719 4.18C136.373 4.3 136.079 4.40667 135.839 4.5C135.706 4.55333 135.586 4.6 135.479 4.64C135.386 4.66667 135.299 4.69333 135.219 4.72C135.126 4.74667 135.046 4.77333 134.979 4.8C134.913 4.81333 134.846 4.82 134.779 4.82ZM141.967 5.42C141.807 5.42 141.674 5.37333 141.567 5.28C141.354 5.10667 141.294 4.88667 141.387 4.62C141.387 4.60667 141.434 4.44667 141.527 4.14C141.634 3.83333 141.754 3.48667 141.887 3.1C141.954 2.87333 142.014 2.68 142.067 2.52C142.12 2.34667 142.167 2.19333 142.207 2.06C141.847 2.19333 141.407 2.36 140.887 2.56C140.367 2.74667 139.82 2.94667 139.247 3.16C138.687 3.37333 138.14 3.58 137.607 3.78C137.46 3.83333 137.314 3.82667 137.167 3.76C137.007 3.68 136.894 3.56 136.827 3.4C136.774 3.25333 136.787 3.10667 136.867 2.96C136.934 2.8 137.047 2.68667 137.207 2.62C137.807 2.40667 138.427 2.18667 139.067 1.96C139.707 1.72 140.3 1.5 140.847 1.3C141.394 1.08667 141.84 0.913333 142.187 0.78C142.534 0.646666 142.707 0.579999 142.707 0.579999C142.774 0.566666 142.84 0.56 142.907 0.56C142.974 0.546667 143.034 0.553333 143.087 0.579999C143.274 0.606666 143.407 0.713333 143.487 0.899999C143.554 1.00667 143.58 1.14667 143.567 1.32C143.567 1.48 143.534 1.71333 143.467 2.02C143.427 2.19333 143.374 2.38667 143.307 2.6C143.254 2.8 143.18 3.03333 143.087 3.3C143.074 3.35333 143.06 3.4 143.047 3.44C143.034 3.48 143.02 3.52667 143.007 3.58C143.54 3.28667 144.194 2.98 144.967 2.66C145.114 2.59333 145.26 2.59333 145.407 2.66C145.567 2.71333 145.674 2.81333 145.727 2.96C145.807 3.10667 145.814 3.26 145.747 3.42C145.68 3.58 145.574 3.69333 145.427 3.76C144.827 4.02667 144.287 4.28 143.807 4.52C143.34 4.76 142.967 4.95333 142.687 5.1C142.407 5.24667 142.267 5.32 142.267 5.32C142.187 5.38667 142.087 5.42 141.967 5.42ZM146.56 6.56C146.467 6.56 146.374 6.54667 146.28 6.52C146.187 6.50667 146.094 6.49333 146 6.48C145.76 6.41333 145.594 6.27333 145.5 6.06C145.38 5.79333 145.38 5.47333 145.5 5.1C145.634 4.71333 145.847 4.22 146.14 3.62C146.194 3.51333 146.247 3.39333 146.3 3.26C146.367 3.12667 146.427 3 146.48 2.88C146.307 2.94667 146.12 3.06 145.92 3.22C145.734 3.36667 145.54 3.52 145.34 3.68C145.207 3.77333 145.06 3.81333 144.9 3.8C144.727 3.77333 144.587 3.7 144.48 3.58C144.387 3.44667 144.354 3.3 144.38 3.14C144.394 2.98 144.46 2.84 144.58 2.72C144.767 2.58667 144.96 2.44 145.16 2.28C145.374 2.12 145.587 1.98667 145.8 1.88C146.347 1.6 146.847 1.52667 147.3 1.66C147.514 1.7 147.674 1.83333 147.78 2.06C147.887 2.27333 147.88 2.54 147.76 2.86C147.654 3.18 147.467 3.61333 147.2 4.16C147.134 4.32 147.06 4.48 146.98 4.64C146.914 4.8 146.847 4.95333 146.78 5.1C146.767 5.15333 146.747 5.2 146.72 5.24C146.707 5.28 146.694 5.32 146.68 5.36C146.96 5.32 147.367 5.18 147.9 4.94C148.447 4.68667 149.18 4.19333 150.1 3.46C150.594 3.07333 151.04 2.7 151.44 2.34C151.84 1.96667 152.16 1.66 152.4 1.42C152.64 1.18 152.76 1.06 152.76 1.06C152.92 0.873333 153.114 0.813333 153.34 0.88C153.447 0.893333 153.534 0.94 153.6 1.02C153.667 1.08667 153.72 1.15333 153.76 1.22C153.854 1.40667 153.86 1.62667 153.78 1.88C153.714 2.12 153.567 2.51333 153.34 3.06C153.26 3.23333 153.18 3.40667 153.1 3.58C153.034 3.75333 152.967 3.91333 152.9 4.06C152.887 4.11333 152.874 4.16 152.86 4.2C152.86 4.22667 152.854 4.25333 152.84 4.28C153.094 4.24 153.36 4.13333 153.64 3.96C153.934 3.77333 154.214 3.56667 154.48 3.34C154.76 3.11333 154.994 2.92 155.18 2.76C155.314 2.64 155.46 2.58667 155.62 2.6C155.78 2.61333 155.92 2.68 156.04 2.8C156.147 2.93333 156.194 3.08 156.18 3.24C156.18 3.4 156.114 3.54 155.98 3.66C155.567 4.02 155.14 4.36 154.7 4.68C154.274 5 153.84 5.24 153.4 5.4C152.974 5.54667 152.54 5.56667 152.1 5.46C151.887 5.36667 151.734 5.23333 151.64 5.06C151.56 4.87333 151.534 4.66667 151.56 4.44C151.6 4.21333 151.68 3.93333 151.8 3.6C151.654 3.73333 151.5 3.86 151.34 3.98C151.194 4.1 151.034 4.23333 150.86 4.38C149.02 5.83333 147.587 6.56 146.56 6.56ZM159.945 5.42C159.785 5.42 159.652 5.37333 159.545 5.28C159.332 5.10667 159.272 4.88667 159.365 4.62C159.365 4.60667 159.412 4.44667 159.505 4.14C159.612 3.83333 159.732 3.48667 159.865 3.1C159.932 2.87333 159.992 2.68 160.045 2.52C160.098 2.34667 160.145 2.19333 160.185 2.06C159.825 2.19333 159.385 2.36 158.865 2.56C158.345 2.74667 157.798 2.94667 157.225 3.16C156.665 3.37333 156.118 3.58 155.585 3.78C155.438 3.83333 155.292 3.82667 155.145 3.76C154.985 3.68 154.872 3.56 154.805 3.4C154.752 3.25333 154.765 3.10667 154.845 2.96C154.912 2.8 155.025 2.68667 155.185 2.62C155.785 2.40667 156.405 2.18667 157.045 1.96C157.685 1.72 158.278 1.5 158.825 1.3C159.372 1.08667 159.818 0.913333 160.165 0.78C160.512 0.646666 160.685 0.579999 160.685 0.579999C160.752 0.566666 160.818 0.56 160.885 0.56C160.952 0.546667 161.012 0.553333 161.065 0.579999C161.252 0.606666 161.385 0.713333 161.465 0.899999C161.532 1.00667 161.558 1.14667 161.545 1.32C161.545 1.48 161.512 1.71333 161.445 2.02C161.405 2.19333 161.352 2.38667 161.285 2.6C161.232 2.8 161.158 3.03333 161.065 3.3C161.052 3.35333 161.038 3.4 161.025 3.44C161.012 3.48 160.998 3.52667 160.985 3.58C161.518 3.28667 162.172 2.98 162.945 2.66C163.092 2.59333 163.238 2.59333 163.385 2.66C163.545 2.71333 163.652 2.81333 163.705 2.96C163.785 3.10667 163.792 3.26 163.725 3.42C163.658 3.58 163.552 3.69333 163.405 3.76C162.805 4.02667 162.265 4.28 161.785 4.52C161.318 4.76 160.945 4.95333 160.665 5.1C160.385 5.24667 160.245 5.32 160.245 5.32C160.165 5.38667 160.065 5.42 159.945 5.42ZM175.105 4.82C175.038 4.82 174.985 4.81333 174.945 4.8C174.732 4.74667 174.578 4.66667 174.485 4.56C174.405 4.44 174.352 4.34667 174.325 4.28C174.232 3.98667 174.265 3.68667 174.425 3.38C174.585 3.06 174.792 2.72667 175.045 2.38C175.125 2.27333 175.198 2.16 175.265 2.04C175.345 1.90667 175.412 1.79333 175.465 1.7C175.478 1.68667 175.498 1.66 175.525 1.62C175.445 1.64667 175.345 1.68667 175.225 1.74C175.118 1.79333 174.992 1.87333 174.845 1.98C174.605 2.12667 174.352 2.32 174.085 2.56C173.818 2.78667 173.545 3.02667 173.265 3.28C173.198 3.33333 173.125 3.39333 173.045 3.46C172.978 3.52667 172.912 3.59333 172.845 3.66C172.725 3.76667 172.585 3.82 172.425 3.82C172.252 3.80667 172.112 3.73333 172.005 3.6C171.885 3.48 171.832 3.34 171.845 3.18C171.858 3.00667 171.925 2.86667 172.045 2.76C172.112 2.69333 172.185 2.62667 172.265 2.56C172.332 2.49333 172.398 2.43333 172.465 2.38C172.892 1.99333 173.312 1.64 173.725 1.32C174.138 0.986667 174.545 0.733333 174.945 0.56C175.345 0.386666 175.732 0.353333 176.105 0.46C176.332 0.513333 176.492 0.606667 176.585 0.74C176.692 0.86 176.752 0.966666 176.765 1.06C176.885 1.35333 176.858 1.66667 176.685 2C176.512 2.32 176.292 2.67333 176.025 3.06C175.998 3.08667 175.965 3.13333 175.925 3.2C175.898 3.25333 175.865 3.30667 175.825 3.36C176.025 3.28 176.285 3.18 176.605 3.06C176.925 2.94 177.312 2.79333 177.765 2.62C177.938 2.56667 178.098 2.58 178.245 2.66C178.392 2.72667 178.492 2.84 178.545 3C178.612 3.14667 178.605 3.3 178.525 3.46C178.458 3.60667 178.352 3.71333 178.205 3.78C177.778 3.92667 177.392 4.06 177.045 4.18C176.698 4.3 176.405 4.40667 176.165 4.5C176.032 4.55333 175.912 4.6 175.805 4.64C175.712 4.66667 175.625 4.69333 175.545 4.72C175.452 4.74667 175.372 4.77333 175.305 4.8C175.238 4.81333 175.172 4.82 175.105 4.82ZM179.333 6.56C179.239 6.56 179.146 6.54667 179.053 6.52C178.959 6.50667 178.866 6.49333 178.773 6.48C178.533 6.41333 178.366 6.27333 178.273 6.06C178.153 5.79333 178.153 5.47333 178.273 5.1C178.406 4.71333 178.619 4.22 178.913 3.62C178.966 3.51333 179.019 3.39333 179.073 3.26C179.139 3.12667 179.199 3 179.253 2.88C179.079 2.94667 178.893 3.06 178.693 3.22C178.506 3.36667 178.313 3.52 178.113 3.68C177.979 3.77333 177.833 3.81333 177.673 3.8C177.499 3.77333 177.359 3.7 177.253 3.58C177.159 3.44667 177.126 3.3 177.153 3.14C177.166 2.98 177.233 2.84 177.353 2.72C177.539 2.58667 177.733 2.44 177.933 2.28C178.146 2.12 178.359 1.98667 178.573 1.88C179.119 1.6 179.619 1.52667 180.073 1.66C180.286 1.7 180.446 1.83333 180.553 2.06C180.659 2.27333 180.653 2.54 180.533 2.86C180.426 3.18 180.239 3.61333 179.973 4.16C179.906 4.32 179.833 4.48 179.753 4.64C179.686 4.8 179.619 4.95333 179.553 5.1C179.539 5.15333 179.519 5.2 179.493 5.24C179.479 5.28 179.466 5.32 179.453 5.36C179.733 5.32 180.139 5.18 180.673 4.94C181.219 4.68667 181.953 4.19333 182.873 3.46C183.366 3.07333 183.813 2.7 184.213 2.34C184.613 1.96667 184.933 1.66 185.173 1.42C185.413 1.18 185.533 1.06 185.533 1.06C185.693 0.873333 185.886 0.813333 186.113 0.88C186.219 0.893333 186.306 0.94 186.373 1.02C186.439 1.08667 186.493 1.15333 186.533 1.22C186.626 1.40667 186.633 1.62667 186.553 1.88C186.486 2.12 186.339 2.51333 186.113 3.06C186.033 3.23333 185.953 3.40667 185.873 3.58C185.806 3.75333 185.739 3.91333 185.673 4.06C185.659 4.11333 185.646 4.16 185.633 4.2C185.633 4.22667 185.626 4.25333 185.613 4.28C185.866 4.24 186.133 4.13333 186.413 3.96C186.706 3.77333 186.986 3.56667 187.253 3.34C187.533 3.11333 187.766 2.92 187.953 2.76C188.086 2.64 188.233 2.58667 188.393 2.6C188.553 2.61333 188.693 2.68 188.813 2.8C188.919 2.93333 188.966 3.08 188.953 3.24C188.953 3.4 188.886 3.54 188.753 3.66C188.339 4.02 187.913 4.36 187.473 4.68C187.046 5 186.613 5.24 186.173 5.4C185.746 5.54667 185.313 5.56667 184.873 5.46C184.659 5.36667 184.506 5.23333 184.413 5.06C184.333 4.87333 184.306 4.66667 184.333 4.44C184.373 4.21333 184.453 3.93333 184.573 3.6C184.426 3.73333 184.273 3.86 184.113 3.98C183.966 4.1 183.806 4.23333 183.633 4.38C181.793 5.83333 180.359 6.56 179.333 6.56ZM190.817 4.82C190.751 4.82 190.697 4.81333 190.657 4.8C190.444 4.74667 190.291 4.66667 190.197 4.56C190.117 4.44 190.064 4.34667 190.037 4.28C189.944 3.98667 189.977 3.68667 190.137 3.38C190.297 3.06 190.504 2.72667 190.757 2.38C190.837 2.27333 190.911 2.16 190.977 2.04C191.057 1.90667 191.124 1.79333 191.177 1.7C191.191 1.68667 191.211 1.66 191.237 1.62C191.157 1.64667 191.057 1.68667 190.937 1.74C190.831 1.79333 190.704 1.87333 190.557 1.98C190.317 2.12667 190.064 2.32 189.797 2.56C189.531 2.78667 189.257 3.02667 188.977 3.28C188.911 3.33333 188.837 3.39333 188.757 3.46C188.691 3.52667 188.624 3.59333 188.557 3.66C188.437 3.76667 188.297 3.82 188.137 3.82C187.964 3.80667 187.824 3.73333 187.717 3.6C187.597 3.48 187.544 3.34 187.557 3.18C187.571 3.00667 187.637 2.86667 187.757 2.76C187.824 2.69333 187.897 2.62667 187.977 2.56C188.044 2.49333 188.111 2.43333 188.177 2.38C188.604 1.99333 189.024 1.64 189.437 1.32C189.851 0.986667 190.257 0.733333 190.657 0.56C191.057 0.386666 191.444 0.353333 191.817 0.46C192.044 0.513333 192.204 0.606667 192.297 0.74C192.404 0.86 192.464 0.966666 192.477 1.06C192.597 1.35333 192.571 1.66667 192.397 2C192.224 2.32 192.004 2.67333 191.737 3.06C191.711 3.08667 191.677 3.13333 191.637 3.2C191.611 3.25333 191.577 3.30667 191.537 3.36C191.737 3.28 191.997 3.18 192.317 3.06C192.637 2.94 193.024 2.79333 193.477 2.62C193.651 2.56667 193.811 2.58 193.957 2.66C194.104 2.72667 194.204 2.84 194.257 3C194.324 3.14667 194.317 3.3 194.237 3.46C194.171 3.60667 194.064 3.71333 193.917 3.78C193.491 3.92667 193.104 4.06 192.757 4.18C192.411 4.3 192.117 4.40667 191.877 4.5C191.744 4.55333 191.624 4.6 191.517 4.64C191.424 4.66667 191.337 4.69333 191.257 4.72C191.164 4.74667 191.084 4.77333 191.017 4.8C190.951 4.81333 190.884 4.82 190.817 4.82ZM204.552 6.56C204.458 6.56 204.365 6.54667 204.272 6.52C204.178 6.50667 204.085 6.49333 203.992 6.48C203.752 6.41333 203.585 6.27333 203.492 6.06C203.372 5.79333 203.372 5.47333 203.492 5.1C203.625 4.71333 203.838 4.22 204.132 3.62C204.185 3.51333 204.238 3.39333 204.292 3.26C204.358 3.12667 204.418 3 204.472 2.88C204.298 2.94667 204.112 3.06 203.912 3.22C203.725 3.36667 203.532 3.52 203.332 3.68C203.198 3.77333 203.052 3.81333 202.892 3.8C202.718 3.77333 202.578 3.7 202.472 3.58C202.378 3.44667 202.345 3.3 202.372 3.14C202.385 2.98 202.452 2.84 202.572 2.72C202.758 2.58667 202.952 2.44 203.152 2.28C203.365 2.12 203.578 1.98667 203.792 1.88C204.338 1.6 204.838 1.52667 205.292 1.66C205.505 1.7 205.665 1.83333 205.772 2.06C205.878 2.27333 205.872 2.54 205.752 2.86C205.645 3.18 205.458 3.61333 205.192 4.16C205.125 4.32 205.052 4.48 204.972 4.64C204.905 4.8 204.838 4.95333 204.772 5.1C204.758 5.15333 204.738 5.2 204.712 5.24C204.698 5.28 204.685 5.32 204.672 5.36C204.952 5.32 205.358 5.18 205.892 4.94C206.438 4.68667 207.172 4.19333 208.092 3.46C208.585 3.07333 209.032 2.7 209.432 2.34C209.832 1.96667 210.152 1.66 210.392 1.42C210.632 1.18 210.752 1.06 210.752 1.06C210.912 0.873333 211.105 0.813333 211.332 0.88C211.438 0.893333 211.525 0.94 211.592 1.02C211.658 1.08667 211.712 1.15333 211.752 1.22C211.845 1.40667 211.852 1.62667 211.772 1.88C211.705 2.12 211.558 2.51333 211.332 3.06C211.252 3.23333 211.172 3.40667 211.092 3.58C211.025 3.75333 210.958 3.91333 210.892 4.06C210.878 4.11333 210.865 4.16 210.852 4.2C210.852 4.22667 210.845 4.25333 210.832 4.28C211.085 4.24 211.352 4.13333 211.632 3.96C211.925 3.77333 212.205 3.56667 212.472 3.34C212.752 3.11333 212.985 2.92 213.172 2.76C213.305 2.64 213.452 2.58667 213.612 2.6C213.772 2.61333 213.912 2.68 214.032 2.8C214.138 2.93333 214.185 3.08 214.172 3.24C214.172 3.4 214.105 3.54 213.972 3.66C213.558 4.02 213.132 4.36 212.692 4.68C212.265 5 211.832 5.24 211.392 5.4C210.965 5.54667 210.532 5.56667 210.092 5.46C209.878 5.36667 209.725 5.23333 209.632 5.06C209.552 4.87333 209.525 4.66667 209.552 4.44C209.592 4.21333 209.672 3.93333 209.792 3.6C209.645 3.73333 209.492 3.86 209.332 3.98C209.185 4.1 209.025 4.23333 208.852 4.38C207.012 5.83333 205.578 6.56 204.552 6.56ZM220.396 5.22C220.303 5.22 220.216 5.20667 220.136 5.18C219.883 5.12667 219.703 4.97333 219.596 4.72C219.516 4.49333 219.536 4.24 219.656 3.96C219.79 3.68 219.963 3.36667 220.176 3.02C220.256 2.9 220.33 2.78 220.396 2.66C220.476 2.52667 220.543 2.40667 220.596 2.3C220.623 2.26 220.643 2.22667 220.656 2.2C220.67 2.16 220.683 2.12667 220.696 2.1C220.296 2.03333 219.83 2.02 219.296 2.06C218.776 2.08667 218.19 2.18667 217.536 2.36C216.963 2.50667 216.343 2.7 215.676 2.94C215.023 3.16667 214.33 3.44 213.596 3.76C213.45 3.81333 213.303 3.81333 213.156 3.76C213.01 3.70667 212.903 3.60667 212.836 3.46C212.756 3.31333 212.75 3.16 212.816 3C212.883 2.82667 212.99 2.71333 213.136 2.66C213.883 2.32667 214.596 2.04 215.276 1.8C215.97 1.54667 216.623 1.34667 217.236 1.2C218.876 0.786666 220.216 0.72 221.256 1C221.563 1.08 221.776 1.26667 221.896 1.56C222.016 1.85333 221.99 2.18 221.816 2.54C221.643 2.9 221.436 3.27333 221.196 3.66C221.183 3.68667 221.163 3.72 221.136 3.76C221.11 3.8 221.083 3.84667 221.056 3.9C221.363 3.83333 221.816 3.7 222.416 3.5C223.016 3.3 223.843 3.00667 224.896 2.62C225.043 2.56667 225.19 2.58 225.336 2.66C225.496 2.72667 225.603 2.84 225.656 3C225.723 3.14667 225.723 3.3 225.656 3.46C225.59 3.60667 225.47 3.71333 225.296 3.78C224.683 3.99333 224.123 4.18667 223.616 4.36C223.11 4.53333 222.656 4.68 222.256 4.8C221.723 4.96 221.316 5.07333 221.036 5.14C220.756 5.19333 220.543 5.22 220.396 5.22ZM241.46 5.22C241.367 5.22 241.28 5.20667 241.2 5.18C240.947 5.12667 240.767 4.97333 240.66 4.72C240.58 4.49333 240.6 4.24 240.72 3.96C240.853 3.68 241.027 3.36667 241.24 3.02C241.32 2.9 241.393 2.78 241.46 2.66C241.54 2.52667 241.607 2.40667 241.66 2.3C241.687 2.26 241.707 2.22667 241.72 2.2C241.733 2.16 241.747 2.12667 241.76 2.1C241.36 2.03333 240.893 2.02 240.36 2.06C239.84 2.08667 239.253 2.18667 238.6 2.36C238.027 2.50667 237.407 2.7 236.74 2.94C236.087 3.16667 235.393 3.44 234.66 3.76C234.513 3.81333 234.367 3.81333 234.22 3.76C234.073 3.70667 233.967 3.60667 233.9 3.46C233.82 3.31333 233.813 3.16 233.88 3C233.947 2.82667 234.053 2.71333 234.2 2.66C234.947 2.32667 235.66 2.04 236.34 1.8C237.033 1.54667 237.687 1.34667 238.3 1.2C239.94 0.786666 241.28 0.72 242.32 1C242.627 1.08 242.84 1.26667 242.96 1.56C243.08 1.85333 243.053 2.18 242.88 2.54C242.707 2.9 242.5 3.27333 242.26 3.66C242.247 3.68667 242.227 3.72 242.2 3.76C242.173 3.8 242.147 3.84667 242.12 3.9C242.427 3.83333 242.88 3.7 243.48 3.5C244.08 3.3 244.907 3.00667 245.96 2.62C246.107 2.56667 246.253 2.58 246.4 2.66C246.56 2.72667 246.667 2.84 246.72 3C246.787 3.14667 246.787 3.3 246.72 3.46C246.653 3.60667 246.533 3.71333 246.36 3.78C245.747 3.99333 245.187 4.18667 244.68 4.36C244.173 4.53333 243.72 4.68 243.32 4.8C242.787 4.96 242.38 5.07333 242.1 5.14C241.82 5.19333 241.607 5.22 241.46 5.22ZM248.517 6.6C248.451 6.6 248.384 6.59333 248.317 6.58C248.251 6.58 248.177 6.57333 248.097 6.56C247.937 6.50667 247.804 6.39333 247.697 6.22C247.644 6.11333 247.617 5.96667 247.617 5.78C247.617 5.59333 247.677 5.28667 247.797 4.86C247.917 4.43333 248.111 3.8 248.377 2.96C248.084 3.06667 247.744 3.19333 247.357 3.34C246.984 3.48667 246.597 3.63333 246.197 3.78C246.051 3.83333 245.904 3.82667 245.757 3.76C245.597 3.68 245.484 3.56 245.417 3.4C245.364 3.25333 245.377 3.10667 245.457 2.96C245.524 2.8 245.637 2.68667 245.797 2.62C246.371 2.40667 246.904 2.20667 247.397 2.02C247.904 1.83333 248.317 1.68 248.637 1.56C248.957 1.44 249.117 1.38 249.117 1.38C249.251 1.32667 249.377 1.32 249.497 1.36C249.671 1.4 249.797 1.5 249.877 1.66C249.944 1.78 249.964 1.88667 249.937 1.98C249.924 2.07333 249.904 2.17333 249.877 2.28C249.851 2.33333 249.831 2.39333 249.817 2.46C249.804 2.51333 249.784 2.58 249.757 2.66C249.664 2.88667 249.564 3.16667 249.457 3.5C249.364 3.82 249.264 4.14667 249.157 4.48C249.091 4.66667 249.037 4.82667 248.997 4.96C248.957 5.09333 248.924 5.21333 248.897 5.32C249.151 5.26667 249.517 5.11333 249.997 4.86C250.411 4.63333 250.851 4.37333 251.317 4.08C251.797 3.77333 252.284 3.45333 252.777 3.12C252.884 3.05333 252.991 2.98667 253.097 2.92C253.217 2.85333 253.324 2.78 253.417 2.7C253.564 2.60667 253.717 2.58 253.877 2.62C254.051 2.64667 254.184 2.73333 254.277 2.88C254.371 3.01333 254.397 3.16 254.357 3.32C254.331 3.48 254.244 3.60667 254.097 3.7C253.991 3.78 253.877 3.86 253.757 3.94C253.651 4.00667 253.537 4.08 253.417 4.16C252.911 4.49333 252.417 4.81333 251.937 5.12C251.457 5.42667 251.004 5.69333 250.577 5.92C249.711 6.37333 249.024 6.6 248.517 6.6ZM264.677 6.56C264.584 6.56 264.49 6.54667 264.397 6.52C264.304 6.50667 264.21 6.49333 264.117 6.48C263.877 6.41333 263.71 6.27333 263.617 6.06C263.497 5.79333 263.497 5.47333 263.617 5.1C263.75 4.71333 263.964 4.22 264.257 3.62C264.31 3.51333 264.364 3.39333 264.417 3.26C264.484 3.12667 264.544 3 264.597 2.88C264.424 2.94667 264.237 3.06 264.037 3.22C263.85 3.36667 263.657 3.52 263.457 3.68C263.324 3.77333 263.177 3.81333 263.017 3.8C262.844 3.77333 262.704 3.7 262.597 3.58C262.504 3.44667 262.47 3.3 262.497 3.14C262.51 2.98 262.577 2.84 262.697 2.72C262.884 2.58667 263.077 2.44 263.277 2.28C263.49 2.12 263.704 1.98667 263.917 1.88C264.464 1.6 264.964 1.52667 265.417 1.66C265.63 1.7 265.79 1.83333 265.897 2.06C266.004 2.27333 265.997 2.54 265.877 2.86C265.77 3.18 265.584 3.61333 265.317 4.16C265.25 4.32 265.177 4.48 265.097 4.64C265.03 4.8 264.964 4.95333 264.897 5.1C264.884 5.15333 264.864 5.2 264.837 5.24C264.824 5.28 264.81 5.32 264.797 5.36C265.077 5.32 265.484 5.18 266.017 4.94C266.564 4.68667 267.297 4.19333 268.217 3.46C268.71 3.07333 269.157 2.7 269.557 2.34C269.957 1.96667 270.277 1.66 270.517 1.42C270.757 1.18 270.877 1.06 270.877 1.06C271.037 0.873333 271.23 0.813333 271.457 0.88C271.564 0.893333 271.65 0.94 271.717 1.02C271.784 1.08667 271.837 1.15333 271.877 1.22C271.97 1.40667 271.977 1.62667 271.897 1.88C271.83 2.12 271.684 2.51333 271.457 3.06C271.377 3.23333 271.297 3.40667 271.217 3.58C271.15 3.75333 271.084 3.91333 271.017 4.06C271.004 4.11333 270.99 4.16 270.977 4.2C270.977 4.22667 270.97 4.25333 270.957 4.28C271.21 4.24 271.477 4.13333 271.757 3.96C272.05 3.77333 272.33 3.56667 272.597 3.34C272.877 3.11333 273.11 2.92 273.297 2.76C273.43 2.64 273.577 2.58667 273.737 2.6C273.897 2.61333 274.037 2.68 274.157 2.8C274.264 2.93333 274.31 3.08 274.297 3.24C274.297 3.4 274.23 3.54 274.097 3.66C273.684 4.02 273.257 4.36 272.817 4.68C272.39 5 271.957 5.24 271.517 5.4C271.09 5.54667 270.657 5.56667 270.217 5.46C270.004 5.36667 269.85 5.23333 269.757 5.06C269.677 4.87333 269.65 4.66667 269.677 4.44C269.717 4.21333 269.797 3.93333 269.917 3.6C269.77 3.73333 269.617 3.86 269.457 3.98C269.31 4.1 269.15 4.23333 268.977 4.38C267.137 5.83333 265.704 6.56 264.677 6.56ZM280.522 5.22C280.428 5.22 280.342 5.20667 280.262 5.18C280.008 5.12667 279.828 4.97333 279.722 4.72C279.642 4.49333 279.662 4.24 279.782 3.96C279.915 3.68 280.088 3.36667 280.302 3.02C280.382 2.9 280.455 2.78 280.522 2.66C280.602 2.52667 280.668 2.40667 280.722 2.3C280.748 2.26 280.768 2.22667 280.782 2.2C280.795 2.16 280.808 2.12667 280.822 2.1C280.422 2.03333 279.955 2.02 279.422 2.06C278.902 2.08667 278.315 2.18667 277.662 2.36C277.088 2.50667 276.468 2.7 275.802 2.94C275.148 3.16667 274.455 3.44 273.722 3.76C273.575 3.81333 273.428 3.81333 273.282 3.76C273.135 3.70667 273.028 3.60667 272.962 3.46C272.882 3.31333 272.875 3.16 272.942 3C273.008 2.82667 273.115 2.71333 273.262 2.66C274.008 2.32667 274.722 2.04 275.402 1.8C276.095 1.54667 276.748 1.34667 277.362 1.2C279.002 0.786666 280.342 0.72 281.382 1C281.688 1.08 281.902 1.26667 282.022 1.56C282.142 1.85333 282.115 2.18 281.942 2.54C281.768 2.9 281.562 3.27333 281.322 3.66C281.308 3.68667 281.288 3.72 281.262 3.76C281.235 3.8 281.208 3.84667 281.182 3.9C281.488 3.83333 281.942 3.7 282.542 3.5C283.142 3.3 283.968 3.00667 285.022 2.62C285.168 2.56667 285.315 2.58 285.462 2.66C285.622 2.72667 285.728 2.84 285.782 3C285.848 3.14667 285.848 3.3 285.782 3.46C285.715 3.60667 285.595 3.71333 285.422 3.78C284.808 3.99333 284.248 4.18667 283.742 4.36C283.235 4.53333 282.782 4.68 282.382 4.8C281.848 4.96 281.442 5.07333 281.162 5.14C280.882 5.19333 280.668 5.22 280.522 5.22ZM299.125 5.42C298.965 5.42 298.832 5.37333 298.725 5.28C298.512 5.10667 298.452 4.88667 298.545 4.62C298.545 4.60667 298.592 4.44667 298.685 4.14C298.792 3.83333 298.912 3.48667 299.045 3.1C299.112 2.87333 299.172 2.68 299.225 2.52C299.279 2.34667 299.325 2.19333 299.365 2.06C299.005 2.19333 298.565 2.36 298.045 2.56C297.525 2.74667 296.979 2.94667 296.405 3.16C295.845 3.37333 295.299 3.58 294.765 3.78C294.619 3.83333 294.472 3.82667 294.325 3.76C294.165 3.68 294.052 3.56 293.985 3.4C293.932 3.25333 293.945 3.10667 294.025 2.96C294.092 2.8 294.205 2.68667 294.365 2.62C294.965 2.40667 295.585 2.18667 296.225 1.96C296.865 1.72 297.459 1.5 298.005 1.3C298.552 1.08667 298.999 0.913333 299.345 0.78C299.692 0.646666 299.865 0.579999 299.865 0.579999C299.932 0.566666 299.999 0.56 300.065 0.56C300.132 0.546667 300.192 0.553333 300.245 0.579999C300.432 0.606666 300.565 0.713333 300.645 0.899999C300.712 1.00667 300.739 1.14667 300.725 1.32C300.725 1.48 300.692 1.71333 300.625 2.02C300.585 2.19333 300.532 2.38667 300.465 2.6C300.412 2.8 300.339 3.03333 300.245 3.3C300.232 3.35333 300.219 3.4 300.205 3.44C300.192 3.48 300.179 3.52667 300.165 3.58C300.699 3.28667 301.352 2.98 302.125 2.66C302.272 2.59333 302.419 2.59333 302.565 2.66C302.725 2.71333 302.832 2.81333 302.885 2.96C302.965 3.10667 302.972 3.26 302.905 3.42C302.839 3.58 302.732 3.69333 302.585 3.76C301.985 4.02667 301.445 4.28 300.965 4.52C300.499 4.76 300.125 4.95333 299.845 5.1C299.565 5.24667 299.425 5.32 299.425 5.32C299.345 5.38667 299.245 5.42 299.125 5.42ZM304.779 4.82C304.712 4.82 304.659 4.81333 304.619 4.8C304.406 4.74667 304.252 4.66667 304.159 4.56C304.079 4.44 304.026 4.34667 303.999 4.28C303.906 3.98667 303.939 3.68667 304.099 3.38C304.259 3.06 304.466 2.72667 304.719 2.38C304.799 2.27333 304.872 2.16 304.939 2.04C305.019 1.90667 305.086 1.79333 305.139 1.7C305.152 1.68667 305.172 1.66 305.199 1.62C305.119 1.64667 305.019 1.68667 304.899 1.74C304.792 1.79333 304.666 1.87333 304.519 1.98C304.279 2.12667 304.026 2.32 303.759 2.56C303.492 2.78667 303.219 3.02667 302.939 3.28C302.872 3.33333 302.799 3.39333 302.719 3.46C302.652 3.52667 302.586 3.59333 302.519 3.66C302.399 3.76667 302.259 3.82 302.099 3.82C301.926 3.80667 301.786 3.73333 301.679 3.6C301.559 3.48 301.506 3.34 301.519 3.18C301.532 3.00667 301.599 2.86667 301.719 2.76C301.786 2.69333 301.859 2.62667 301.939 2.56C302.006 2.49333 302.072 2.43333 302.139 2.38C302.566 1.99333 302.986 1.64 303.399 1.32C303.812 0.986667 304.219 0.733333 304.619 0.56C305.019 0.386666 305.406 0.353333 305.779 0.46C306.006 0.513333 306.166 0.606667 306.259 0.74C306.366 0.86 306.426 0.966666 306.439 1.06C306.559 1.35333 306.532 1.66667 306.359 2C306.186 2.32 305.966 2.67333 305.699 3.06C305.672 3.08667 305.639 3.13333 305.599 3.2C305.572 3.25333 305.539 3.30667 305.499 3.36C305.699 3.28 305.959 3.18 306.279 3.06C306.599 2.94 306.986 2.79333 307.439 2.62C307.612 2.56667 307.772 2.58 307.919 2.66C308.066 2.72667 308.166 2.84 308.219 3C308.286 3.14667 308.279 3.3 308.199 3.46C308.132 3.60667 308.026 3.71333 307.879 3.78C307.452 3.92667 307.066 4.06 306.719 4.18C306.372 4.3 306.079 4.40667 305.839 4.5C305.706 4.55333 305.586 4.6 305.479 4.64C305.386 4.66667 305.299 4.69333 305.219 4.72C305.126 4.74667 305.046 4.77333 304.979 4.8C304.912 4.81333 304.846 4.82 304.779 4.82ZM318.513 6.56C318.42 6.56 318.327 6.54667 318.233 6.52C318.14 6.50667 318.047 6.49333 317.953 6.48C317.713 6.41333 317.547 6.27333 317.453 6.06C317.333 5.79333 317.333 5.47333 317.453 5.1C317.587 4.71333 317.8 4.22 318.093 3.62C318.147 3.51333 318.2 3.39333 318.253 3.26C318.32 3.12667 318.38 3 318.433 2.88C318.26 2.94667 318.073 3.06 317.873 3.22C317.687 3.36667 317.493 3.52 317.293 3.68C317.16 3.77333 317.013 3.81333 316.853 3.8C316.68 3.77333 316.54 3.7 316.433 3.58C316.34 3.44667 316.307 3.3 316.333 3.14C316.347 2.98 316.413 2.84 316.533 2.72C316.72 2.58667 316.913 2.44 317.113 2.28C317.327 2.12 317.54 1.98667 317.753 1.88C318.3 1.6 318.8 1.52667 319.253 1.66C319.467 1.7 319.627 1.83333 319.733 2.06C319.84 2.27333 319.833 2.54 319.713 2.86C319.607 3.18 319.42 3.61333 319.153 4.16C319.087 4.32 319.013 4.48 318.933 4.64C318.867 4.8 318.8 4.95333 318.733 5.1C318.72 5.15333 318.7 5.2 318.673 5.24C318.66 5.28 318.647 5.32 318.633 5.36C318.913 5.32 319.32 5.18 319.853 4.94C320.4 4.68667 321.133 4.19333 322.053 3.46C322.547 3.07333 322.993 2.7 323.393 2.34C323.793 1.96667 324.113 1.66 324.353 1.42C324.593 1.18 324.713 1.06 324.713 1.06C324.873 0.873333 325.067 0.813333 325.293 0.88C325.4 0.893333 325.487 0.94 325.553 1.02C325.62 1.08667 325.673 1.15333 325.713 1.22C325.807 1.40667 325.813 1.62667 325.733 1.88C325.667 2.12 325.52 2.51333 325.293 3.06C325.213 3.23333 325.133 3.40667 325.053 3.58C324.987 3.75333 324.92 3.91333 324.853 4.06C324.84 4.11333 324.827 4.16 324.813 4.2C324.813 4.22667 324.807 4.25333 324.793 4.28C325.047 4.24 325.313 4.13333 325.593 3.96C325.887 3.77333 326.167 3.56667 326.433 3.34C326.713 3.11333 326.947 2.92 327.133 2.76C327.267 2.64 327.413 2.58667 327.573 2.6C327.733 2.61333 327.873 2.68 327.993 2.8C328.1 2.93333 328.147 3.08 328.133 3.24C328.133 3.4 328.067 3.54 327.933 3.66C327.52 4.02 327.093 4.36 326.653 4.68C326.227 5 325.793 5.24 325.353 5.4C324.927 5.54667 324.493 5.56667 324.053 5.46C323.84 5.36667 323.687 5.23333 323.593 5.06C323.513 4.87333 323.487 4.66667 323.513 4.44C323.553 4.21333 323.633 3.93333 323.753 3.6C323.607 3.73333 323.453 3.86 323.293 3.98C323.147 4.1 322.987 4.23333 322.813 4.38C320.973 5.83333 319.54 6.56 318.513 6.56ZM331.898 5.42C331.738 5.42 331.604 5.37333 331.498 5.28C331.284 5.10667 331.224 4.88667 331.318 4.62C331.318 4.60667 331.364 4.44667 331.458 4.14C331.564 3.83333 331.684 3.48667 331.818 3.1C331.884 2.87333 331.944 2.68 331.998 2.52C332.051 2.34667 332.098 2.19333 332.138 2.06C331.778 2.19333 331.338 2.36 330.818 2.56C330.298 2.74667 329.751 2.94667 329.178 3.16C328.618 3.37333 328.071 3.58 327.538 3.78C327.391 3.83333 327.244 3.82667 327.098 3.76C326.938 3.68 326.824 3.56 326.758 3.4C326.704 3.25333 326.718 3.10667 326.798 2.96C326.864 2.8 326.978 2.68667 327.138 2.62C327.738 2.40667 328.358 2.18667 328.998 1.96C329.638 1.72 330.231 1.5 330.778 1.3C331.324 1.08667 331.771 0.913333 332.118 0.78C332.464 0.646666 332.638 0.579999 332.638 0.579999C332.704 0.566666 332.771 0.56 332.838 0.56C332.904 0.546667 332.964 0.553333 333.018 0.579999C333.204 0.606666 333.338 0.713333 333.418 0.899999C333.484 1.00667 333.511 1.14667 333.498 1.32C333.498 1.48 333.464 1.71333 333.398 2.02C333.358 2.19333 333.304 2.38667 333.238 2.6C333.184 2.8 333.111 3.03333 333.018 3.3C333.004 3.35333 332.991 3.4 332.978 3.44C332.964 3.48 332.951 3.52667 332.938 3.58C333.471 3.28667 334.124 2.98 334.898 2.66C335.044 2.59333 335.191 2.59333 335.338 2.66C335.498 2.71333 335.604 2.81333 335.658 2.96C335.738 3.10667 335.744 3.26 335.678 3.42C335.611 3.58 335.504 3.69333 335.358 3.76C334.758 4.02667 334.218 4.28 333.738 4.52C333.271 4.76 332.898 4.95333 332.618 5.1C332.338 5.24667 332.198 5.32 332.198 5.32C332.118 5.38667 332.018 5.42 331.898 5.42ZM341.911 5.22C341.818 5.22 341.731 5.20667 341.651 5.18C341.398 5.12667 341.218 4.97333 341.111 4.72C341.031 4.49333 341.051 4.24 341.171 3.96C341.305 3.68 341.478 3.36667 341.691 3.02C341.771 2.9 341.845 2.78 341.911 2.66C341.991 2.52667 342.058 2.40667 342.111 2.3C342.138 2.26 342.158 2.22667 342.171 2.2C342.185 2.16 342.198 2.12667 342.211 2.1C341.811 2.03333 341.345 2.02 340.811 2.06C340.291 2.08667 339.705 2.18667 339.051 2.36C338.478 2.50667 337.858 2.7 337.191 2.94C336.538 3.16667 335.845 3.44 335.111 3.76C334.965 3.81333 334.818 3.81333 334.671 3.76C334.525 3.70667 334.418 3.60667 334.351 3.46C334.271 3.31333 334.265 3.16 334.331 3C334.398 2.82667 334.505 2.71333 334.651 2.66C335.398 2.32667 336.111 2.04 336.791 1.8C337.485 1.54667 338.138 1.34667 338.751 1.2C340.391 0.786666 341.731 0.72 342.771 1C343.078 1.08 343.291 1.26667 343.411 1.56C343.531 1.85333 343.505 2.18 343.331 2.54C343.158 2.9 342.951 3.27333 342.711 3.66C342.698 3.68667 342.678 3.72 342.651 3.76C342.625 3.8 342.598 3.84667 342.571 3.9C342.878 3.83333 343.331 3.7 343.931 3.5C344.531 3.3 345.358 3.00667 346.411 2.62C346.558 2.56667 346.705 2.58 346.851 2.66C347.011 2.72667 347.118 2.84 347.171 3C347.238 3.14667 347.238 3.3 347.171 3.46C347.105 3.60667 346.985 3.71333 346.811 3.78C346.198 3.99333 345.638 4.18667 345.131 4.36C344.625 4.53333 344.171 4.68 343.771 4.8C343.238 4.96 342.831 5.07333 342.551 5.14C342.271 5.19333 342.058 5.22 341.911 5.22ZM358.615 4.82C358.549 4.82 358.495 4.81333 358.455 4.8C358.242 4.74667 358.089 4.66667 357.995 4.56C357.915 4.44 357.862 4.34667 357.835 4.28C357.742 3.98667 357.775 3.68667 357.935 3.38C358.095 3.06 358.302 2.72667 358.555 2.38C358.635 2.27333 358.709 2.16 358.775 2.04C358.855 1.90667 358.922 1.79333 358.975 1.7C358.989 1.68667 359.009 1.66 359.035 1.62C358.955 1.64667 358.855 1.68667 358.735 1.74C358.629 1.79333 358.502 1.87333 358.355 1.98C358.115 2.12667 357.862 2.32 357.595 2.56C357.329 2.78667 357.055 3.02667 356.775 3.28C356.709 3.33333 356.635 3.39333 356.555 3.46C356.489 3.52667 356.422 3.59333 356.355 3.66C356.235 3.76667 356.095 3.82 355.935 3.82C355.762 3.80667 355.622 3.73333 355.515 3.6C355.395 3.48 355.342 3.34 355.355 3.18C355.369 3.00667 355.435 2.86667 355.555 2.76C355.622 2.69333 355.695 2.62667 355.775 2.56C355.842 2.49333 355.909 2.43333 355.975 2.38C356.402 1.99333 356.822 1.64 357.235 1.32C357.649 0.986667 358.055 0.733333 358.455 0.56C358.855 0.386666 359.242 0.353333 359.615 0.46C359.842 0.513333 360.002 0.606667 360.095 0.74C360.202 0.86 360.262 0.966666 360.275 1.06C360.395 1.35333 360.369 1.66667 360.195 2C360.022 2.32 359.802 2.67333 359.535 3.06C359.509 3.08667 359.475 3.13333 359.435 3.2C359.409 3.25333 359.375 3.30667 359.335 3.36C359.535 3.28 359.795 3.18 360.115 3.06C360.435 2.94 360.822 2.79333 361.275 2.62C361.449 2.56667 361.609 2.58 361.755 2.66C361.902 2.72667 362.002 2.84 362.055 3C362.122 3.14667 362.115 3.3 362.035 3.46C361.969 3.60667 361.862 3.71333 361.715 3.78C361.289 3.92667 360.902 4.06 360.555 4.18C360.209 4.3 359.915 4.40667 359.675 4.5C359.542 4.55333 359.422 4.6 359.315 4.64C359.222 4.66667 359.135 4.69333 359.055 4.72C358.962 4.74667 358.882 4.77333 358.815 4.8C358.749 4.81333 358.682 4.82 358.615 4.82ZM377.77 5.22C377.676 5.22 377.59 5.20667 377.51 5.18C377.256 5.12667 377.076 4.97333 376.97 4.72C376.89 4.49333 376.91 4.24 377.03 3.96C377.163 3.68 377.336 3.36667 377.55 3.02C377.63 2.9 377.703 2.78 377.77 2.66C377.85 2.52667 377.916 2.40667 377.97 2.3C377.996 2.26 378.016 2.22667 378.03 2.2C378.043 2.16 378.056 2.12667 378.07 2.1C377.67 2.03333 377.203 2.02 376.67 2.06C376.15 2.08667 375.563 2.18667 374.91 2.36C374.336 2.50667 373.716 2.7 373.05 2.94C372.396 3.16667 371.703 3.44 370.97 3.76C370.823 3.81333 370.676 3.81333 370.53 3.76C370.383 3.70667 370.276 3.60667 370.21 3.46C370.13 3.31333 370.123 3.16 370.19 3C370.256 2.82667 370.363 2.71333 370.51 2.66C371.256 2.32667 371.97 2.04 372.65 1.8C373.343 1.54667 373.996 1.34667 374.61 1.2C376.25 0.786666 377.59 0.72 378.63 1C378.936 1.08 379.15 1.26667 379.27 1.56C379.39 1.85333 379.363 2.18 379.19 2.54C379.016 2.9 378.81 3.27333 378.57 3.66C378.556 3.68667 378.536 3.72 378.51 3.76C378.483 3.8 378.456 3.84667 378.43 3.9C378.736 3.83333 379.19 3.7 379.79 3.5C380.39 3.3 381.216 3.00667 382.27 2.62C382.416 2.56667 382.563 2.58 382.71 2.66C382.87 2.72667 382.976 2.84 383.03 3C383.096 3.14667 383.096 3.3 383.03 3.46C382.963 3.60667 382.843 3.71333 382.67 3.78C382.056 3.99333 381.496 4.18667 380.99 4.36C380.483 4.53333 380.03 4.68 379.63 4.8C379.096 4.96 378.69 5.07333 378.41 5.14C378.13 5.19333 377.916 5.22 377.77 5.22ZM386.867 5.42C386.707 5.42 386.574 5.37333 386.467 5.28C386.254 5.10667 386.194 4.88667 386.287 4.62C386.287 4.60667 386.334 4.44667 386.427 4.14C386.534 3.83333 386.654 3.48667 386.787 3.1C386.854 2.87333 386.914 2.68 386.967 2.52C387.02 2.34667 387.067 2.19333 387.107 2.06C386.747 2.19333 386.307 2.36 385.787 2.56C385.267 2.74667 384.72 2.94667 384.147 3.16C383.587 3.37333 383.04 3.58 382.507 3.78C382.36 3.83333 382.214 3.82667 382.067 3.76C381.907 3.68 381.794 3.56 381.727 3.4C381.674 3.25333 381.687 3.10667 381.767 2.96C381.834 2.8 381.947 2.68667 382.107 2.62C382.707 2.40667 383.327 2.18667 383.967 1.96C384.607 1.72 385.2 1.5 385.747 1.3C386.294 1.08667 386.74 0.913333 387.087 0.78C387.434 0.646666 387.607 0.579999 387.607 0.579999C387.674 0.566666 387.74 0.56 387.807 0.56C387.874 0.546667 387.934 0.553333 387.987 0.579999C388.174 0.606666 388.307 0.713333 388.387 0.899999C388.454 1.00667 388.48 1.14667 388.467 1.32C388.467 1.48 388.434 1.71333 388.367 2.02C388.327 2.19333 388.274 2.38667 388.207 2.6C388.154 2.8 388.08 3.03333 387.987 3.3C387.974 3.35333 387.96 3.4 387.947 3.44C387.934 3.48 387.92 3.52667 387.907 3.58C388.44 3.28667 389.094 2.98 389.867 2.66C390.014 2.59333 390.16 2.59333 390.307 2.66C390.467 2.71333 390.574 2.81333 390.627 2.96C390.707 3.10667 390.714 3.26 390.647 3.42C390.58 3.58 390.474 3.69333 390.327 3.76C389.727 4.02667 389.187 4.28 388.707 4.52C388.24 4.76 387.867 4.95333 387.587 5.1C387.307 5.24667 387.167 5.32 387.167 5.32C387.087 5.38667 386.987 5.42 386.867 5.42ZM396.88 5.22C396.787 5.22 396.7 5.20667 396.62 5.18C396.367 5.12667 396.187 4.97333 396.08 4.72C396 4.49333 396.02 4.24 396.14 3.96C396.274 3.68 396.447 3.36667 396.66 3.02C396.74 2.9 396.814 2.78 396.88 2.66C396.96 2.52667 397.027 2.40667 397.08 2.3C397.107 2.26 397.127 2.22667 397.14 2.2C397.154 2.16 397.167 2.12667 397.18 2.1C396.78 2.03333 396.314 2.02 395.78 2.06C395.26 2.08667 394.674 2.18667 394.02 2.36C393.447 2.50667 392.827 2.7 392.16 2.94C391.507 3.16667 390.814 3.44 390.08 3.76C389.934 3.81333 389.787 3.81333 389.64 3.76C389.494 3.70667 389.387 3.60667 389.32 3.46C389.24 3.31333 389.234 3.16 389.3 3C389.367 2.82667 389.474 2.71333 389.62 2.66C390.367 2.32667 391.08 2.04 391.76 1.8C392.454 1.54667 393.107 1.34667 393.72 1.2C395.36 0.786666 396.7 0.72 397.74 1C398.047 1.08 398.26 1.26667 398.38 1.56C398.5 1.85333 398.474 2.18 398.3 2.54C398.127 2.9 397.92 3.27333 397.68 3.66C397.667 3.68667 397.647 3.72 397.62 3.76C397.594 3.8 397.567 3.84667 397.54 3.9C397.847 3.83333 398.3 3.7 398.9 3.5C399.5 3.3 400.327 3.00667 401.38 2.62C401.527 2.56667 401.674 2.58 401.82 2.66C401.98 2.72667 402.087 2.84 402.14 3C402.207 3.14667 402.207 3.3 402.14 3.46C402.074 3.60667 401.954 3.71333 401.78 3.78C401.167 3.99333 400.607 4.18667 400.1 4.36C399.594 4.53333 399.14 4.68 398.74 4.8C398.207 4.96 397.8 5.07333 397.52 5.14C397.24 5.19333 397.027 5.22 396.88 5.22ZM405.978 5.42C405.818 5.42 405.684 5.37333 405.578 5.28C405.364 5.10667 405.304 4.88667 405.398 4.62C405.398 4.60667 405.444 4.44667 405.538 4.14C405.644 3.83333 405.764 3.48667 405.898 3.1C405.964 2.87333 406.024 2.68 406.078 2.52C406.131 2.34667 406.178 2.19333 406.218 2.06C405.858 2.19333 405.418 2.36 404.898 2.56C404.378 2.74667 403.831 2.94667 403.258 3.16C402.698 3.37333 402.151 3.58 401.618 3.78C401.471 3.83333 401.324 3.82667 401.178 3.76C401.018 3.68 400.904 3.56 400.838 3.4C400.784 3.25333 400.798 3.10667 400.878 2.96C400.944 2.8 401.058 2.68667 401.218 2.62C401.818 2.40667 402.438 2.18667 403.078 1.96C403.718 1.72 404.311 1.5 404.858 1.3C405.404 1.08667 405.851 0.913333 406.198 0.78C406.544 0.646666 406.718 0.579999 406.718 0.579999C406.784 0.566666 406.851 0.56 406.918 0.56C406.984 0.546667 407.044 0.553333 407.098 0.579999C407.284 0.606666 407.418 0.713333 407.498 0.899999C407.564 1.00667 407.591 1.14667 407.578 1.32C407.578 1.48 407.544 1.71333 407.478 2.02C407.438 2.19333 407.384 2.38667 407.318 2.6C407.264 2.8 407.191 3.03333 407.098 3.3C407.084 3.35333 407.071 3.4 407.058 3.44C407.044 3.48 407.031 3.52667 407.018 3.58C407.551 3.28667 408.204 2.98 408.978 2.66C409.124 2.59333 409.271 2.59333 409.418 2.66C409.578 2.71333 409.684 2.81333 409.738 2.96C409.818 3.10667 409.824 3.26 409.758 3.42C409.691 3.58 409.584 3.69333 409.438 3.76C408.838 4.02667 408.298 4.28 407.818 4.52C407.351 4.76 406.978 4.95333 406.698 5.1C406.418 5.24667 406.278 5.32 406.278 5.32C406.198 5.38667 406.098 5.42 405.978 5.42ZM411.631 4.82C411.564 4.82 411.511 4.81333 411.471 4.8C411.258 4.74667 411.104 4.66667 411.011 4.56C410.931 4.44 410.878 4.34667 410.851 4.28C410.758 3.98667 410.791 3.68667 410.951 3.38C411.111 3.06 411.318 2.72667 411.571 2.38C411.651 2.27333 411.724 2.16 411.791 2.04C411.871 1.90667 411.938 1.79333 411.991 1.7C412.004 1.68667 412.024 1.66 412.051 1.62C411.971 1.64667 411.871 1.68667 411.751 1.74C411.644 1.79333 411.518 1.87333 411.371 1.98C411.131 2.12667 410.878 2.32 410.611 2.56C410.344 2.78667 410.071 3.02667 409.791 3.28C409.724 3.33333 409.651 3.39333 409.571 3.46C409.504 3.52667 409.438 3.59333 409.371 3.66C409.251 3.76667 409.111 3.82 408.951 3.82C408.778 3.80667 408.638 3.73333 408.531 3.6C408.411 3.48 408.358 3.34 408.371 3.18C408.384 3.00667 408.451 2.86667 408.571 2.76C408.638 2.69333 408.711 2.62667 408.791 2.56C408.858 2.49333 408.924 2.43333 408.991 2.38C409.418 1.99333 409.838 1.64 410.251 1.32C410.664 0.986667 411.071 0.733333 411.471 0.56C411.871 0.386666 412.258 0.353333 412.631 0.46C412.858 0.513333 413.018 0.606667 413.111 0.74C413.218 0.86 413.278 0.966666 413.291 1.06C413.411 1.35333 413.384 1.66667 413.211 2C413.038 2.32 412.818 2.67333 412.551 3.06C412.524 3.08667 412.491 3.13333 412.451 3.2C412.424 3.25333 412.391 3.30667 412.351 3.36C412.551 3.28 412.811 3.18 413.131 3.06C413.451 2.94 413.838 2.79333 414.291 2.62C414.464 2.56667 414.624 2.58 414.771 2.66C414.918 2.72667 415.018 2.84 415.071 3C415.138 3.14667 415.131 3.3 415.051 3.46C414.984 3.60667 414.878 3.71333 414.731 3.78C414.304 3.92667 413.918 4.06 413.571 4.18C413.224 4.3 412.931 4.40667 412.691 4.5C412.558 4.55333 412.438 4.6 412.331 4.64C412.238 4.66667 412.151 4.69333 412.071 4.72C411.978 4.74667 411.898 4.77333 411.831 4.8C411.764 4.81333 411.698 4.82 411.631 4.82ZM418.819 5.42C418.659 5.42 418.526 5.37333 418.419 5.28C418.206 5.10667 418.146 4.88667 418.239 4.62C418.239 4.60667 418.286 4.44667 418.379 4.14C418.486 3.83333 418.606 3.48667 418.739 3.1C418.806 2.87333 418.866 2.68 418.919 2.52C418.972 2.34667 419.019 2.19333 419.059 2.06C418.699 2.19333 418.259 2.36 417.739 2.56C417.219 2.74667 416.672 2.94667 416.099 3.16C415.539 3.37333 414.992 3.58 414.459 3.78C414.312 3.83333 414.166 3.82667 414.019 3.76C413.859 3.68 413.746 3.56 413.679 3.4C413.626 3.25333 413.639 3.10667 413.719 2.96C413.786 2.8 413.899 2.68667 414.059 2.62C414.659 2.40667 415.279 2.18667 415.919 1.96C416.559 1.72 417.152 1.5 417.699 1.3C418.246 1.08667 418.692 0.913333 419.039 0.78C419.386 0.646666 419.559 0.579999 419.559 0.579999C419.626 0.566666 419.692 0.56 419.759 0.56C419.826 0.546667 419.886 0.553333 419.939 0.579999C420.126 0.606666 420.259 0.713333 420.339 0.899999C420.406 1.00667 420.432 1.14667 420.419 1.32C420.419 1.48 420.386 1.71333 420.319 2.02C420.279 2.19333 420.226 2.38667 420.159 2.6C420.106 2.8 420.032 3.03333 419.939 3.3C419.926 3.35333 419.912 3.4 419.899 3.44C419.886 3.48 419.872 3.52667 419.859 3.58C420.392 3.28667 421.046 2.98 421.819 2.66C421.966 2.59333 422.112 2.59333 422.259 2.66C422.419 2.71333 422.526 2.81333 422.579 2.96C422.659 3.10667 422.666 3.26 422.599 3.42C422.532 3.58 422.426 3.69333 422.279 3.76C421.679 4.02667 421.139 4.28 420.659 4.52C420.192 4.76 419.819 4.95333 419.539 5.1C419.259 5.24667 419.119 5.32 419.119 5.32C419.039 5.38667 418.939 5.42 418.819 5.42ZM423.412 6.56C423.319 6.56 423.226 6.54667 423.132 6.52C423.039 6.50667 422.946 6.49333 422.852 6.48C422.612 6.41333 422.446 6.27333 422.352 6.06C422.232 5.79333 422.232 5.47333 422.352 5.1C422.486 4.71333 422.699 4.22 422.992 3.62C423.046 3.51333 423.099 3.39333 423.152 3.26C423.219 3.12667 423.279 3 423.332 2.88C423.159 2.94667 422.972 3.06 422.772 3.22C422.586 3.36667 422.392 3.52 422.192 3.68C422.059 3.77333 421.912 3.81333 421.752 3.8C421.579 3.77333 421.439 3.7 421.332 3.58C421.239 3.44667 421.206 3.3 421.232 3.14C421.246 2.98 421.312 2.84 421.432 2.72C421.619 2.58667 421.812 2.44 422.012 2.28C422.226 2.12 422.439 1.98667 422.652 1.88C423.199 1.6 423.699 1.52667 424.152 1.66C424.366 1.7 424.526 1.83333 424.632 2.06C424.739 2.27333 424.732 2.54 424.612 2.86C424.506 3.18 424.319 3.61333 424.052 4.16C423.986 4.32 423.912 4.48 423.832 4.64C423.766 4.8 423.699 4.95333 423.632 5.1C423.619 5.15333 423.599 5.2 423.572 5.24C423.559 5.28 423.546 5.32 423.532 5.36C423.812 5.32 424.219 5.18 424.752 4.94C425.299 4.68667 426.032 4.19333 426.952 3.46C427.446 3.07333 427.892 2.7 428.292 2.34C428.692 1.96667 429.012 1.66 429.252 1.42C429.492 1.18 429.612 1.06 429.612 1.06C429.772 0.873333 429.966 0.813333 430.192 0.88C430.299 0.893333 430.386 0.94 430.452 1.02C430.519 1.08667 430.572 1.15333 430.612 1.22C430.706 1.40667 430.712 1.62667 430.632 1.88C430.566 2.12 430.419 2.51333 430.192 3.06C430.112 3.23333 430.032 3.40667 429.952 3.58C429.886 3.75333 429.819 3.91333 429.752 4.06C429.739 4.11333 429.726 4.16 429.712 4.2C429.712 4.22667 429.706 4.25333 429.692 4.28C429.946 4.24 430.212 4.13333 430.492 3.96C430.786 3.77333 431.066 3.56667 431.332 3.34C431.612 3.11333 431.846 2.92 432.032 2.76C432.166 2.64 432.312 2.58667 432.472 2.6C432.632 2.61333 432.772 2.68 432.892 2.8C432.999 2.93333 433.046 3.08 433.032 3.24C433.032 3.4 432.966 3.54 432.832 3.66C432.419 4.02 431.992 4.36 431.552 4.68C431.126 5 430.692 5.24 430.252 5.4C429.826 5.54667 429.392 5.56667 428.952 5.46C428.739 5.36667 428.586 5.23333 428.492 5.06C428.412 4.87333 428.386 4.66667 428.412 4.44C428.452 4.21333 428.532 3.93333 428.652 3.6C428.506 3.73333 428.352 3.86 428.192 3.98C428.046 4.1 427.886 4.23333 427.712 4.38C425.872 5.83333 424.439 6.56 423.412 6.56ZM433.837 6.56C433.744 6.56 433.65 6.54667 433.557 6.52C433.464 6.50667 433.37 6.49333 433.277 6.48C433.037 6.41333 432.87 6.27333 432.777 6.06C432.657 5.79333 432.657 5.47333 432.777 5.1C432.91 4.71333 433.124 4.22 433.417 3.62C433.47 3.51333 433.524 3.39333 433.577 3.26C433.644 3.12667 433.704 3 433.757 2.88C433.584 2.94667 433.397 3.06 433.197 3.22C433.01 3.36667 432.817 3.52 432.617 3.68C432.484 3.77333 432.337 3.81333 432.177 3.8C432.004 3.77333 431.864 3.7 431.757 3.58C431.664 3.44667 431.63 3.3 431.657 3.14C431.67 2.98 431.737 2.84 431.857 2.72C432.044 2.58667 432.237 2.44 432.437 2.28C432.65 2.12 432.864 1.98667 433.077 1.88C433.624 1.6 434.124 1.52667 434.577 1.66C434.79 1.7 434.95 1.83333 435.057 2.06C435.164 2.27333 435.157 2.54 435.037 2.86C434.93 3.18 434.744 3.61333 434.477 4.16C434.41 4.32 434.337 4.48 434.257 4.64C434.19 4.8 434.124 4.95333 434.057 5.1C434.044 5.15333 434.024 5.2 433.997 5.24C433.984 5.28 433.97 5.32 433.957 5.36C434.237 5.32 434.644 5.18 435.177 4.94C435.724 4.68667 436.457 4.19333 437.377 3.46C437.87 3.07333 438.317 2.7 438.717 2.34C439.117 1.96667 439.437 1.66 439.677 1.42C439.917 1.18 440.037 1.06 440.037 1.06C440.197 0.873333 440.39 0.813333 440.617 0.88C440.724 0.893333 440.81 0.94 440.877 1.02C440.944 1.08667 440.997 1.15333 441.037 1.22C441.13 1.40667 441.137 1.62667 441.057 1.88C440.99 2.12 440.844 2.51333 440.617 3.06C440.537 3.23333 440.457 3.40667 440.377 3.58C440.31 3.75333 440.244 3.91333 440.177 4.06C440.164 4.11333 440.15 4.16 440.137 4.2C440.137 4.22667 440.13 4.25333 440.117 4.28C440.37 4.24 440.637 4.13333 440.917 3.96C441.21 3.77333 441.49 3.56667 441.757 3.34C442.037 3.11333 442.27 2.92 442.457 2.76C442.59 2.64 442.737 2.58667 442.897 2.6C443.057 2.61333 443.197 2.68 443.317 2.8C443.424 2.93333 443.47 3.08 443.457 3.24C443.457 3.4 443.39 3.54 443.257 3.66C442.844 4.02 442.417 4.36 441.977 4.68C441.55 5 441.117 5.24 440.677 5.4C440.25 5.54667 439.817 5.56667 439.377 5.46C439.164 5.36667 439.01 5.23333 438.917 5.06C438.837 4.87333 438.81 4.66667 438.837 4.44C438.877 4.21333 438.957 3.93333 439.077 3.6C438.93 3.73333 438.777 3.86 438.617 3.98C438.47 4.1 438.31 4.23333 438.137 4.38C436.297 5.83333 434.864 6.56 433.837 6.56ZM456.728 5.42C456.568 5.42 456.435 5.37333 456.328 5.28C456.115 5.10667 456.055 4.88667 456.148 4.62C456.148 4.60667 456.195 4.44667 456.288 4.14C456.395 3.83333 456.515 3.48667 456.648 3.1C456.715 2.87333 456.775 2.68 456.828 2.52C456.881 2.34667 456.928 2.19333 456.968 2.06C456.608 2.19333 456.168 2.36 455.648 2.56C455.128 2.74667 454.581 2.94667 454.008 3.16C453.448 3.37333 452.901 3.58 452.368 3.78C452.221 3.83333 452.075 3.82667 451.928 3.76C451.768 3.68 451.655 3.56 451.588 3.4C451.535 3.25333 451.548 3.10667 451.628 2.96C451.695 2.8 451.808 2.68667 451.968 2.62C452.568 2.40667 453.188 2.18667 453.828 1.96C454.468 1.72 455.061 1.5 455.608 1.3C456.155 1.08667 456.601 0.913333 456.948 0.78C457.295 0.646666 457.468 0.579999 457.468 0.579999C457.535 0.566666 457.601 0.56 457.668 0.56C457.735 0.546667 457.795 0.553333 457.848 0.579999C458.035 0.606666 458.168 0.713333 458.248 0.899999C458.315 1.00667 458.341 1.14667 458.328 1.32C458.328 1.48 458.295 1.71333 458.228 2.02C458.188 2.19333 458.135 2.38667 458.068 2.6C458.015 2.8 457.941 3.03333 457.848 3.3C457.835 3.35333 457.821 3.4 457.808 3.44C457.795 3.48 457.781 3.52667 457.768 3.58C458.301 3.28667 458.955 2.98 459.728 2.66C459.875 2.59333 460.021 2.59333 460.168 2.66C460.328 2.71333 460.435 2.81333 460.488 2.96C460.568 3.10667 460.575 3.26 460.508 3.42C460.441 3.58 460.335 3.69333 460.188 3.76C459.588 4.02667 459.048 4.28 458.568 4.52C458.101 4.76 457.728 4.95333 457.448 5.1C457.168 5.24667 457.028 5.32 457.028 5.32C456.948 5.38667 456.848 5.42 456.728 5.42ZM461.321 6.56C461.228 6.56 461.135 6.54667 461.041 6.52C460.948 6.50667 460.855 6.49333 460.761 6.48C460.521 6.41333 460.355 6.27333 460.261 6.06C460.141 5.79333 460.141 5.47333 460.261 5.1C460.395 4.71333 460.608 4.22 460.901 3.62C460.955 3.51333 461.008 3.39333 461.061 3.26C461.128 3.12667 461.188 3 461.241 2.88C461.068 2.94667 460.881 3.06 460.681 3.22C460.495 3.36667 460.301 3.52 460.101 3.68C459.968 3.77333 459.821 3.81333 459.661 3.8C459.488 3.77333 459.348 3.7 459.241 3.58C459.148 3.44667 459.115 3.3 459.141 3.14C459.155 2.98 459.221 2.84 459.341 2.72C459.528 2.58667 459.721 2.44 459.921 2.28C460.135 2.12 460.348 1.98667 460.561 1.88C461.108 1.6 461.608 1.52667 462.061 1.66C462.275 1.7 462.435 1.83333 462.541 2.06C462.648 2.27333 462.641 2.54 462.521 2.86C462.415 3.18 462.228 3.61333 461.961 4.16C461.895 4.32 461.821 4.48 461.741 4.64C461.675 4.8 461.608 4.95333 461.541 5.1C461.528 5.15333 461.508 5.2 461.481 5.24C461.468 5.28 461.455 5.32 461.441 5.36C461.721 5.32 462.128 5.18 462.661 4.94C463.208 4.68667 463.941 4.19333 464.861 3.46C465.355 3.07333 465.801 2.7 466.201 2.34C466.601 1.96667 466.921 1.66 467.161 1.42C467.401 1.18 467.521 1.06 467.521 1.06C467.681 0.873333 467.875 0.813333 468.101 0.88C468.208 0.893333 468.295 0.94 468.361 1.02C468.428 1.08667 468.481 1.15333 468.521 1.22C468.615 1.40667 468.621 1.62667 468.541 1.88C468.475 2.12 468.328 2.51333 468.101 3.06C468.021 3.23333 467.941 3.40667 467.861 3.58C467.795 3.75333 467.728 3.91333 467.661 4.06C467.648 4.11333 467.635 4.16 467.621 4.2C467.621 4.22667 467.615 4.25333 467.601 4.28C467.855 4.24 468.121 4.13333 468.401 3.96C468.695 3.77333 468.975 3.56667 469.241 3.34C469.521 3.11333 469.755 2.92 469.941 2.76C470.075 2.64 470.221 2.58667 470.381 2.6C470.541 2.61333 470.681 2.68 470.801 2.8C470.908 2.93333 470.955 3.08 470.941 3.24C470.941 3.4 470.875 3.54 470.741 3.66C470.328 4.02 469.901 4.36 469.461 4.68C469.035 5 468.601 5.24 468.161 5.4C467.735 5.54667 467.301 5.56667 466.861 5.46C466.648 5.36667 466.495 5.23333 466.401 5.06C466.321 4.87333 466.295 4.66667 466.321 4.44C466.361 4.21333 466.441 3.93333 466.561 3.6C466.415 3.73333 466.261 3.86 466.101 3.98C465.955 4.1 465.795 4.23333 465.621 4.38C463.781 5.83333 462.348 6.56 461.321 6.56ZM471.746 6.56C471.653 6.56 471.559 6.54667 471.466 6.52C471.373 6.50667 471.279 6.49333 471.186 6.48C470.946 6.41333 470.779 6.27333 470.686 6.06C470.566 5.79333 470.566 5.47333 470.686 5.1C470.819 4.71333 471.033 4.22 471.326 3.62C471.379 3.51333 471.433 3.39333 471.486 3.26C471.553 3.12667 471.613 3 471.666 2.88C471.493 2.94667 471.306 3.06 471.106 3.22C470.919 3.36667 470.726 3.52 470.526 3.68C470.393 3.77333 470.246 3.81333 470.086 3.8C469.913 3.77333 469.773 3.7 469.666 3.58C469.573 3.44667 469.539 3.3 469.566 3.14C469.579 2.98 469.646 2.84 469.766 2.72C469.953 2.58667 470.146 2.44 470.346 2.28C470.559 2.12 470.773 1.98667 470.986 1.88C471.533 1.6 472.033 1.52667 472.486 1.66C472.699 1.7 472.859 1.83333 472.966 2.06C473.073 2.27333 473.066 2.54 472.946 2.86C472.839 3.18 472.653 3.61333 472.386 4.16C472.319 4.32 472.246 4.48 472.166 4.64C472.099 4.8 472.033 4.95333 471.966 5.1C471.953 5.15333 471.933 5.2 471.906 5.24C471.893 5.28 471.879 5.32 471.866 5.36C472.146 5.32 472.553 5.18 473.086 4.94C473.633 4.68667 474.366 4.19333 475.286 3.46C475.779 3.07333 476.226 2.7 476.626 2.34C477.026 1.96667 477.346 1.66 477.586 1.42C477.826 1.18 477.946 1.06 477.946 1.06C478.106 0.873333 478.299 0.813333 478.526 0.88C478.633 0.893333 478.719 0.94 478.786 1.02C478.853 1.08667 478.906 1.15333 478.946 1.22C479.039 1.40667 479.046 1.62667 478.966 1.88C478.899 2.12 478.753 2.51333 478.526 3.06C478.446 3.23333 478.366 3.40667 478.286 3.58C478.219 3.75333 478.153 3.91333 478.086 4.06C478.073 4.11333 478.059 4.16 478.046 4.2C478.046 4.22667 478.039 4.25333 478.026 4.28C478.279 4.24 478.546 4.13333 478.826 3.96C479.119 3.77333 479.399 3.56667 479.666 3.34C479.946 3.11333 480.179 2.92 480.366 2.76C480.499 2.64 480.646 2.58667 480.806 2.6C480.966 2.61333 481.106 2.68 481.226 2.8C481.333 2.93333 481.379 3.08 481.366 3.24C481.366 3.4 481.299 3.54 481.166 3.66C480.753 4.02 480.326 4.36 479.886 4.68C479.459 5 479.026 5.24 478.586 5.4C478.159 5.54667 477.726 5.56667 477.286 5.46C477.073 5.36667 476.919 5.23333 476.826 5.06C476.746 4.87333 476.719 4.66667 476.746 4.44C476.786 4.21333 476.866 3.93333 476.986 3.6C476.839 3.73333 476.686 3.86 476.526 3.98C476.379 4.1 476.219 4.23333 476.046 4.38C474.206 5.83333 472.773 6.56 471.746 6.56ZM494.637 5.42C494.477 5.42 494.344 5.37333 494.237 5.28C494.024 5.10667 493.964 4.88667 494.057 4.62C494.057 4.60667 494.104 4.44667 494.197 4.14C494.304 3.83333 494.424 3.48667 494.557 3.1C494.624 2.87333 494.684 2.68 494.737 2.52C494.79 2.34667 494.837 2.19333 494.877 2.06C494.517 2.19333 494.077 2.36 493.557 2.56C493.037 2.74667 492.49 2.94667 491.917 3.16C491.357 3.37333 490.81 3.58 490.277 3.78C490.13 3.83333 489.984 3.82667 489.837 3.76C489.677 3.68 489.564 3.56 489.497 3.4C489.444 3.25333 489.457 3.10667 489.537 2.96C489.604 2.8 489.717 2.68667 489.877 2.62C490.477 2.40667 491.097 2.18667 491.737 1.96C492.377 1.72 492.97 1.5 493.517 1.3C494.064 1.08667 494.51 0.913333 494.857 0.78C495.204 0.646666 495.377 0.579999 495.377 0.579999C495.444 0.566666 495.51 0.56 495.577 0.56C495.644 0.546667 495.704 0.553333 495.757 0.579999C495.944 0.606666 496.077 0.713333 496.157 0.899999C496.224 1.00667 496.25 1.14667 496.237 1.32C496.237 1.48 496.204 1.71333 496.137 2.02C496.097 2.19333 496.044 2.38667 495.977 2.6C495.924 2.8 495.85 3.03333 495.757 3.3C495.744 3.35333 495.73 3.4 495.717 3.44C495.704 3.48 495.69 3.52667 495.677 3.58C496.21 3.28667 496.864 2.98 497.637 2.66C497.784 2.59333 497.93 2.59333 498.077 2.66C498.237 2.71333 498.344 2.81333 498.397 2.96C498.477 3.10667 498.484 3.26 498.417 3.42C498.35 3.58 498.244 3.69333 498.097 3.76C497.497 4.02667 496.957 4.28 496.477 4.52C496.01 4.76 495.637 4.95333 495.357 5.1C495.077 5.24667 494.937 5.32 494.937 5.32C494.857 5.38667 494.757 5.42 494.637 5.42ZM500.29 4.82C500.224 4.82 500.17 4.81333 500.13 4.8C499.917 4.74667 499.764 4.66667 499.67 4.56C499.59 4.44 499.537 4.34667 499.51 4.28C499.417 3.98667 499.45 3.68667 499.61 3.38C499.77 3.06 499.977 2.72667 500.23 2.38C500.31 2.27333 500.384 2.16 500.45 2.04C500.53 1.90667 500.597 1.79333 500.65 1.7C500.664 1.68667 500.684 1.66 500.71 1.62C500.63 1.64667 500.53 1.68667 500.41 1.74C500.304 1.79333 500.177 1.87333 500.03 1.98C499.79 2.12667 499.537 2.32 499.27 2.56C499.004 2.78667 498.73 3.02667 498.45 3.28C498.384 3.33333 498.31 3.39333 498.23 3.46C498.164 3.52667 498.097 3.59333 498.03 3.66C497.91 3.76667 497.77 3.82 497.61 3.82C497.437 3.80667 497.297 3.73333 497.19 3.6C497.07 3.48 497.017 3.34 497.03 3.18C497.044 3.00667 497.11 2.86667 497.23 2.76C497.297 2.69333 497.37 2.62667 497.45 2.56C497.517 2.49333 497.584 2.43333 497.65 2.38C498.077 1.99333 498.497 1.64 498.91 1.32C499.324 0.986667 499.73 0.733333 500.13 0.56C500.53 0.386666 500.917 0.353333 501.29 0.46C501.517 0.513333 501.677 0.606667 501.77 0.74C501.877 0.86 501.937 0.966666 501.95 1.06C502.07 1.35333 502.044 1.66667 501.87 2C501.697 2.32 501.477 2.67333 501.21 3.06C501.184 3.08667 501.15 3.13333 501.11 3.2C501.084 3.25333 501.05 3.30667 501.01 3.36C501.21 3.28 501.47 3.18 501.79 3.06C502.11 2.94 502.497 2.79333 502.95 2.62C503.124 2.56667 503.284 2.58 503.43 2.66C503.577 2.72667 503.677 2.84 503.73 3C503.797 3.14667 503.79 3.3 503.71 3.46C503.644 3.60667 503.537 3.71333 503.39 3.78C502.964 3.92667 502.577 4.06 502.23 4.18C501.884 4.3 501.59 4.40667 501.35 4.5C501.217 4.55333 501.097 4.6 500.99 4.64C500.897 4.66667 500.81 4.69333 500.73 4.72C500.637 4.74667 500.557 4.77333 500.49 4.8C500.424 4.81333 500.357 4.82 500.29 4.82ZM507.478 5.42C507.318 5.42 507.185 5.37333 507.078 5.28C506.865 5.10667 506.805 4.88667 506.898 4.62C506.898 4.60667 506.945 4.44667 507.038 4.14C507.145 3.83333 507.265 3.48667 507.398 3.1C507.465 2.87333 507.525 2.68 507.578 2.52C507.632 2.34667 507.678 2.19333 507.718 2.06C507.358 2.19333 506.918 2.36 506.398 2.56C505.878 2.74667 505.332 2.94667 504.758 3.16C504.198 3.37333 503.652 3.58 503.118 3.78C502.972 3.83333 502.825 3.82667 502.678 3.76C502.518 3.68 502.405 3.56 502.338 3.4C502.285 3.25333 502.298 3.10667 502.378 2.96C502.445 2.8 502.558 2.68667 502.718 2.62C503.318 2.40667 503.938 2.18667 504.578 1.96C505.218 1.72 505.812 1.5 506.358 1.3C506.905 1.08667 507.352 0.913333 507.698 0.78C508.045 0.646666 508.218 0.579999 508.218 0.579999C508.285 0.566666 508.352 0.56 508.418 0.56C508.485 0.546667 508.545 0.553333 508.598 0.579999C508.785 0.606666 508.918 0.713333 508.998 0.899999C509.065 1.00667 509.092 1.14667 509.078 1.32C509.078 1.48 509.045 1.71333 508.978 2.02C508.938 2.19333 508.885 2.38667 508.818 2.6C508.765 2.8 508.692 3.03333 508.598 3.3C508.585 3.35333 508.572 3.4 508.558 3.44C508.545 3.48 508.532 3.52667 508.518 3.58C509.052 3.28667 509.705 2.98 510.478 2.66C510.625 2.59333 510.772 2.59333 510.918 2.66C511.078 2.71333 511.185 2.81333 511.238 2.96C511.318 3.10667 511.325 3.26 511.258 3.42C511.192 3.58 511.085 3.69333 510.938 3.76C510.338 4.02667 509.798 4.28 509.318 4.52C508.852 4.76 508.478 4.95333 508.198 5.1C507.918 5.24667 507.778 5.32 507.778 5.32C507.698 5.38667 507.598 5.42 507.478 5.42ZM513.132 4.82C513.065 4.82 513.012 4.81333 512.972 4.8C512.758 4.74667 512.605 4.66667 512.512 4.56C512.432 4.44 512.378 4.34667 512.352 4.28C512.258 3.98667 512.292 3.68667 512.452 3.38C512.612 3.06 512.818 2.72667 513.072 2.38C513.152 2.27333 513.225 2.16 513.292 2.04C513.372 1.90667 513.438 1.79333 513.492 1.7C513.505 1.68667 513.525 1.66 513.552 1.62C513.472 1.64667 513.372 1.68667 513.252 1.74C513.145 1.79333 513.018 1.87333 512.872 1.98C512.632 2.12667 512.378 2.32 512.112 2.56C511.845 2.78667 511.572 3.02667 511.292 3.28C511.225 3.33333 511.152 3.39333 511.072 3.46C511.005 3.52667 510.938 3.59333 510.872 3.66C510.752 3.76667 510.612 3.82 510.452 3.82C510.278 3.80667 510.138 3.73333 510.032 3.6C509.912 3.48 509.858 3.34 509.872 3.18C509.885 3.00667 509.952 2.86667 510.072 2.76C510.138 2.69333 510.212 2.62667 510.292 2.56C510.358 2.49333 510.425 2.43333 510.492 2.38C510.918 1.99333 511.338 1.64 511.752 1.32C512.165 0.986667 512.572 0.733333 512.972 0.56C513.372 0.386666 513.758 0.353333 514.132 0.46C514.358 0.513333 514.518 0.606667 514.612 0.74C514.718 0.86 514.778 0.966666 514.792 1.06C514.912 1.35333 514.885 1.66667 514.712 2C514.538 2.32 514.318 2.67333 514.052 3.06C514.025 3.08667 513.992 3.13333 513.952 3.2C513.925 3.25333 513.892 3.30667 513.852 3.36C514.052 3.28 514.312 3.18 514.632 3.06C514.952 2.94 515.338 2.79333 515.792 2.62C515.965 2.56667 516.125 2.58 516.272 2.66C516.418 2.72667 516.518 2.84 516.572 3C516.638 3.14667 516.632 3.3 516.552 3.46C516.485 3.60667 516.378 3.71333 516.232 3.78C515.805 3.92667 515.418 4.06 515.072 4.18C514.725 4.3 514.432 4.40667 514.192 4.5C514.058 4.55333 513.938 4.6 513.832 4.64C513.738 4.66667 513.652 4.69333 513.572 4.72C513.478 4.74667 513.398 4.77333 513.332 4.8C513.265 4.81333 513.198 4.82 513.132 4.82ZM517.36 6.56C517.266 6.56 517.173 6.54667 517.08 6.52C516.986 6.50667 516.893 6.49333 516.8 6.48C516.56 6.41333 516.393 6.27333 516.3 6.06C516.18 5.79333 516.18 5.47333 516.3 5.1C516.433 4.71333 516.646 4.22 516.94 3.62C516.993 3.51333 517.046 3.39333 517.1 3.26C517.166 3.12667 517.226 3 517.28 2.88C517.106 2.94667 516.92 3.06 516.72 3.22C516.533 3.36667 516.34 3.52 516.14 3.68C516.006 3.77333 515.86 3.81333 515.7 3.8C515.526 3.77333 515.386 3.7 515.28 3.58C515.186 3.44667 515.153 3.3 515.18 3.14C515.193 2.98 515.26 2.84 515.38 2.72C515.566 2.58667 515.76 2.44 515.96 2.28C516.173 2.12 516.386 1.98667 516.6 1.88C517.146 1.6 517.646 1.52667 518.1 1.66C518.313 1.7 518.473 1.83333 518.58 2.06C518.686 2.27333 518.68 2.54 518.56 2.86C518.453 3.18 518.266 3.61333 518 4.16C517.933 4.32 517.86 4.48 517.78 4.64C517.713 4.8 517.646 4.95333 517.58 5.1C517.566 5.15333 517.546 5.2 517.52 5.24C517.506 5.28 517.493 5.32 517.48 5.36C517.76 5.32 518.166 5.18 518.7 4.94C519.246 4.68667 519.98 4.19333 520.9 3.46C521.393 3.07333 521.84 2.7 522.24 2.34C522.64 1.96667 522.96 1.66 523.2 1.42C523.44 1.18 523.56 1.06 523.56 1.06C523.72 0.873333 523.913 0.813333 524.14 0.88C524.246 0.893333 524.333 0.94 524.4 1.02C524.466 1.08667 524.52 1.15333 524.56 1.22C524.653 1.40667 524.66 1.62667 524.58 1.88C524.513 2.12 524.366 2.51333 524.14 3.06C524.06 3.23333 523.98 3.40667 523.9 3.58C523.833 3.75333 523.766 3.91333 523.7 4.06C523.686 4.11333 523.673 4.16 523.66 4.2C523.66 4.22667 523.653 4.25333 523.64 4.28C523.893 4.24 524.16 4.13333 524.44 3.96C524.733 3.77333 525.013 3.56667 525.28 3.34C525.56 3.11333 525.793 2.92 525.98 2.76C526.113 2.64 526.26 2.58667 526.42 2.6C526.58 2.61333 526.72 2.68 526.84 2.8C526.946 2.93333 526.993 3.08 526.98 3.24C526.98 3.4 526.913 3.54 526.78 3.66C526.366 4.02 525.94 4.36 525.5 4.68C525.073 5 524.64 5.24 524.2 5.4C523.773 5.54667 523.34 5.56667 522.9 5.46C522.686 5.36667 522.533 5.23333 522.44 5.06C522.36 4.87333 522.333 4.66667 522.36 4.44C522.4 4.21333 522.48 3.93333 522.6 3.6C522.453 3.73333 522.3 3.86 522.14 3.98C521.993 4.1 521.833 4.23333 521.66 4.38C519.82 5.83333 518.386 6.56 517.36 6.56ZM528.844 4.82C528.777 4.82 528.724 4.81333 528.684 4.8C528.471 4.74667 528.317 4.66667 528.224 4.56C528.144 4.44 528.091 4.34667 528.064 4.28C527.971 3.98667 528.004 3.68667 528.164 3.38C528.324 3.06 528.531 2.72667 528.784 2.38C528.864 2.27333 528.937 2.16 529.004 2.04C529.084 1.90667 529.151 1.79333 529.204 1.7C529.217 1.68667 529.237 1.66 529.264 1.62C529.184 1.64667 529.084 1.68667 528.964 1.74C528.857 1.79333 528.731 1.87333 528.584 1.98C528.344 2.12667 528.091 2.32 527.824 2.56C527.557 2.78667 527.284 3.02667 527.004 3.28C526.937 3.33333 526.864 3.39333 526.784 3.46C526.717 3.52667 526.651 3.59333 526.584 3.66C526.464 3.76667 526.324 3.82 526.164 3.82C525.991 3.80667 525.851 3.73333 525.744 3.6C525.624 3.48 525.571 3.34 525.584 3.18C525.597 3.00667 525.664 2.86667 525.784 2.76C525.851 2.69333 525.924 2.62667 526.004 2.56C526.071 2.49333 526.137 2.43333 526.204 2.38C526.631 1.99333 527.051 1.64 527.464 1.32C527.877 0.986667 528.284 0.733333 528.684 0.56C529.084 0.386666 529.471 0.353333 529.844 0.46C530.071 0.513333 530.231 0.606667 530.324 0.74C530.431 0.86 530.491 0.966666 530.504 1.06C530.624 1.35333 530.597 1.66667 530.424 2C530.251 2.32 530.031 2.67333 529.764 3.06C529.737 3.08667 529.704 3.13333 529.664 3.2C529.637 3.25333 529.604 3.30667 529.564 3.36C529.764 3.28 530.024 3.18 530.344 3.06C530.664 2.94 531.051 2.79333 531.504 2.62C531.677 2.56667 531.837 2.58 531.984 2.66C532.131 2.72667 532.231 2.84 532.284 3C532.351 3.14667 532.344 3.3 532.264 3.46C532.197 3.60667 532.091 3.71333 531.944 3.78C531.517 3.92667 531.131 4.06 530.784 4.18C530.437 4.3 530.144 4.40667 529.904 4.5C529.771 4.55333 529.651 4.6 529.544 4.64C529.451 4.66667 529.364 4.69333 529.284 4.72C529.191 4.74667 529.111 4.77333 529.044 4.8C528.977 4.81333 528.911 4.82 528.844 4.82ZM533.072 6.56C532.979 6.56 532.885 6.54667 532.792 6.52C532.699 6.50667 532.605 6.49333 532.512 6.48C532.272 6.41333 532.105 6.27333 532.012 6.06C531.892 5.79333 531.892 5.47333 532.012 5.1C532.145 4.71333 532.359 4.22 532.652 3.62C532.705 3.51333 532.759 3.39333 532.812 3.26C532.879 3.12667 532.939 3 532.992 2.88C532.819 2.94667 532.632 3.06 532.432 3.22C532.245 3.36667 532.052 3.52 531.852 3.68C531.719 3.77333 531.572 3.81333 531.412 3.8C531.239 3.77333 531.099 3.7 530.992 3.58C530.899 3.44667 530.865 3.3 530.892 3.14C530.905 2.98 530.972 2.84 531.092 2.72C531.279 2.58667 531.472 2.44 531.672 2.28C531.885 2.12 532.099 1.98667 532.312 1.88C532.859 1.6 533.359 1.52667 533.812 1.66C534.025 1.7 534.185 1.83333 534.292 2.06C534.399 2.27333 534.392 2.54 534.272 2.86C534.165 3.18 533.979 3.61333 533.712 4.16C533.645 4.32 533.572 4.48 533.492 4.64C533.425 4.8 533.359 4.95333 533.292 5.1C533.279 5.15333 533.259 5.2 533.232 5.24C533.219 5.28 533.205 5.32 533.192 5.36C533.472 5.32 533.879 5.18 534.412 4.94C534.959 4.68667 535.692 4.19333 536.612 3.46C537.105 3.07333 537.552 2.7 537.952 2.34C538.352 1.96667 538.672 1.66 538.912 1.42C539.152 1.18 539.272 1.06 539.272 1.06C539.432 0.873333 539.625 0.813333 539.852 0.88C539.959 0.893333 540.045 0.94 540.112 1.02C540.179 1.08667 540.232 1.15333 540.272 1.22C540.365 1.40667 540.372 1.62667 540.292 1.88C540.225 2.12 540.079 2.51333 539.852 3.06C539.772 3.23333 539.692 3.40667 539.612 3.58C539.545 3.75333 539.479 3.91333 539.412 4.06C539.399 4.11333 539.385 4.16 539.372 4.2C539.372 4.22667 539.365 4.25333 539.352 4.28C539.605 4.24 539.872 4.13333 540.152 3.96C540.445 3.77333 540.725 3.56667 540.992 3.34C541.272 3.11333 541.505 2.92 541.692 2.76C541.825 2.64 541.972 2.58667 542.132 2.6C542.292 2.61333 542.432 2.68 542.552 2.8C542.659 2.93333 542.705 3.08 542.692 3.24C542.692 3.4 542.625 3.54 542.492 3.66C542.079 4.02 541.652 4.36 541.212 4.68C540.785 5 540.352 5.24 539.912 5.4C539.485 5.54667 539.052 5.56667 538.612 5.46C538.399 5.36667 538.245 5.23333 538.152 5.06C538.072 4.87333 538.045 4.66667 538.072 4.44C538.112 4.21333 538.192 3.93333 538.312 3.6C538.165 3.73333 538.012 3.86 537.852 3.98C537.705 4.1 537.545 4.23333 537.372 4.38C535.532 5.83333 534.099 6.56 533.072 6.56ZM544.556 4.82C544.49 4.82 544.436 4.81333 544.396 4.8C544.183 4.74667 544.03 4.66667 543.936 4.56C543.856 4.44 543.803 4.34667 543.776 4.28C543.683 3.98667 543.716 3.68667 543.876 3.38C544.036 3.06 544.243 2.72667 544.496 2.38C544.576 2.27333 544.65 2.16 544.716 2.04C544.796 1.90667 544.863 1.79333 544.916 1.7C544.93 1.68667 544.95 1.66 544.976 1.62C544.896 1.64667 544.796 1.68667 544.676 1.74C544.57 1.79333 544.443 1.87333 544.296 1.98C544.056 2.12667 543.803 2.32 543.536 2.56C543.27 2.78667 542.996 3.02667 542.716 3.28C542.65 3.33333 542.576 3.39333 542.496 3.46C542.43 3.52667 542.363 3.59333 542.296 3.66C542.176 3.76667 542.036 3.82 541.876 3.82C541.703 3.80667 541.563 3.73333 541.456 3.6C541.336 3.48 541.283 3.34 541.296 3.18C541.31 3.00667 541.376 2.86667 541.496 2.76C541.563 2.69333 541.636 2.62667 541.716 2.56C541.783 2.49333 541.85 2.43333 541.916 2.38C542.343 1.99333 542.763 1.64 543.176 1.32C543.59 0.986667 543.996 0.733333 544.396 0.56C544.796 0.386666 545.183 0.353333 545.556 0.46C545.783 0.513333 545.943 0.606667 546.036 0.74C546.143 0.86 546.203 0.966666 546.216 1.06C546.336 1.35333 546.31 1.66667 546.136 2C545.963 2.32 545.743 2.67333 545.476 3.06C545.45 3.08667 545.416 3.13333 545.376 3.2C545.35 3.25333 545.316 3.30667 545.276 3.36C545.476 3.28 545.736 3.18 546.056 3.06C546.376 2.94 546.763 2.79333 547.216 2.62C547.39 2.56667 547.55 2.58 547.696 2.66C547.843 2.72667 547.943 2.84 547.996 3C548.063 3.14667 548.056 3.3 547.976 3.46C547.91 3.60667 547.803 3.71333 547.656 3.78C547.23 3.92667 546.843 4.06 546.496 4.18C546.15 4.3 545.856 4.40667 545.616 4.5C545.483 4.55333 545.363 4.6 545.256 4.64C545.163 4.66667 545.076 4.69333 544.996 4.72C544.903 4.74667 544.823 4.77333 544.756 4.8C544.69 4.81333 544.623 4.82 544.556 4.82ZM554.204 5.22C554.111 5.22 554.024 5.20667 553.944 5.18C553.691 5.12667 553.511 4.97333 553.404 4.72C553.324 4.49333 553.344 4.24 553.464 3.96C553.598 3.68 553.771 3.36667 553.984 3.02C554.064 2.9 554.138 2.78 554.204 2.66C554.284 2.52667 554.351 2.40667 554.404 2.3C554.431 2.26 554.451 2.22667 554.464 2.2C554.478 2.16 554.491 2.12667 554.504 2.1C554.104 2.03333 553.638 2.02 553.104 2.06C552.584 2.08667 551.998 2.18667 551.344 2.36C550.771 2.50667 550.151 2.7 549.484 2.94C548.831 3.16667 548.138 3.44 547.404 3.76C547.258 3.81333 547.111 3.81333 546.964 3.76C546.818 3.70667 546.711 3.60667 546.644 3.46C546.564 3.31333 546.558 3.16 546.624 3C546.691 2.82667 546.798 2.71333 546.944 2.66C547.691 2.32667 548.404 2.04 549.084 1.8C549.778 1.54667 550.431 1.34667 551.044 1.2C552.684 0.786666 554.024 0.72 555.064 1C555.371 1.08 555.584 1.26667 555.704 1.56C555.824 1.85333 555.798 2.18 555.624 2.54C555.451 2.9 555.244 3.27333 555.004 3.66C554.991 3.68667 554.971 3.72 554.944 3.76C554.918 3.8 554.891 3.84667 554.864 3.9C555.171 3.83333 555.624 3.7 556.224 3.5C556.824 3.3 557.651 3.00667 558.704 2.62C558.851 2.56667 558.998 2.58 559.144 2.66C559.304 2.72667 559.411 2.84 559.464 3C559.531 3.14667 559.531 3.3 559.464 3.46C559.398 3.60667 559.278 3.71333 559.104 3.78C558.491 3.99333 557.931 4.18667 557.424 4.36C556.918 4.53333 556.464 4.68 556.064 4.8C555.531 4.96 555.124 5.07333 554.844 5.14C554.564 5.19333 554.351 5.22 554.204 5.22ZM561.402 4.82C561.335 4.82 561.282 4.81333 561.242 4.8C561.028 4.74667 560.875 4.66667 560.782 4.56C560.702 4.44 560.648 4.34667 560.622 4.28C560.528 3.98667 560.562 3.68667 560.722 3.38C560.882 3.06 561.088 2.72667 561.342 2.38C561.422 2.27333 561.495 2.16 561.562 2.04C561.642 1.90667 561.708 1.79333 561.762 1.7C561.775 1.68667 561.795 1.66 561.822 1.62C561.742 1.64667 561.642 1.68667 561.522 1.74C561.415 1.79333 561.288 1.87333 561.142 1.98C560.902 2.12667 560.648 2.32 560.382 2.56C560.115 2.78667 559.842 3.02667 559.562 3.28C559.495 3.33333 559.422 3.39333 559.342 3.46C559.275 3.52667 559.208 3.59333 559.142 3.66C559.022 3.76667 558.882 3.82 558.722 3.82C558.548 3.80667 558.408 3.73333 558.302 3.6C558.182 3.48 558.128 3.34 558.142 3.18C558.155 3.00667 558.222 2.86667 558.342 2.76C558.408 2.69333 558.482 2.62667 558.562 2.56C558.628 2.49333 558.695 2.43333 558.762 2.38C559.188 1.99333 559.608 1.64 560.022 1.32C560.435 0.986667 560.842 0.733333 561.242 0.56C561.642 0.386666 562.028 0.353333 562.402 0.46C562.628 0.513333 562.788 0.606667 562.882 0.74C562.988 0.86 563.048 0.966666 563.062 1.06C563.182 1.35333 563.155 1.66667 562.982 2C562.808 2.32 562.588 2.67333 562.322 3.06C562.295 3.08667 562.262 3.13333 562.222 3.2C562.195 3.25333 562.162 3.30667 562.122 3.36C562.322 3.28 562.582 3.18 562.902 3.06C563.222 2.94 563.608 2.79333 564.062 2.62C564.235 2.56667 564.395 2.58 564.542 2.66C564.688 2.72667 564.788 2.84 564.842 3C564.908 3.14667 564.902 3.3 564.822 3.46C564.755 3.60667 564.648 3.71333 564.502 3.78C564.075 3.92667 563.688 4.06 563.342 4.18C562.995 4.3 562.702 4.40667 562.462 4.5C562.328 4.55333 562.208 4.6 562.102 4.64C562.008 4.66667 561.922 4.69333 561.842 4.72C561.748 4.74667 561.668 4.77333 561.602 4.8C561.535 4.81333 561.468 4.82 561.402 4.82ZM571.049 5.22C570.956 5.22 570.869 5.20667 570.789 5.18C570.536 5.12667 570.356 4.97333 570.249 4.72C570.169 4.49333 570.189 4.24 570.309 3.96C570.443 3.68 570.616 3.36667 570.829 3.02C570.909 2.9 570.983 2.78 571.049 2.66C571.129 2.52667 571.196 2.40667 571.249 2.3C571.276 2.26 571.296 2.22667 571.309 2.2C571.323 2.16 571.336 2.12667 571.349 2.1C570.949 2.03333 570.483 2.02 569.949 2.06C569.429 2.08667 568.843 2.18667 568.189 2.36C567.616 2.50667 566.996 2.7 566.329 2.94C565.676 3.16667 564.983 3.44 564.249 3.76C564.103 3.81333 563.956 3.81333 563.809 3.76C563.663 3.70667 563.556 3.60667 563.489 3.46C563.409 3.31333 563.403 3.16 563.469 3C563.536 2.82667 563.643 2.71333 563.789 2.66C564.536 2.32667 565.249 2.04 565.929 1.8C566.623 1.54667 567.276 1.34667 567.889 1.2C569.529 0.786666 570.869 0.72 571.909 1C572.216 1.08 572.429 1.26667 572.549 1.56C572.669 1.85333 572.643 2.18 572.469 2.54C572.296 2.9 572.089 3.27333 571.849 3.66C571.836 3.68667 571.816 3.72 571.789 3.76C571.763 3.8 571.736 3.84667 571.709 3.9C572.016 3.83333 572.469 3.7 573.069 3.5C573.669 3.3 574.496 3.00667 575.549 2.62C575.696 2.56667 575.843 2.58 575.989 2.66C576.149 2.72667 576.256 2.84 576.309 3C576.376 3.14667 576.376 3.3 576.309 3.46C576.243 3.60667 576.123 3.71333 575.949 3.78C575.336 3.99333 574.776 4.18667 574.269 4.36C573.763 4.53333 573.309 4.68 572.909 4.8C572.376 4.96 571.969 5.07333 571.689 5.14C571.409 5.19333 571.196 5.22 571.049 5.22ZM578.247 4.82C578.18 4.82 578.127 4.81333 578.087 4.8C577.873 4.74667 577.72 4.66667 577.627 4.56C577.547 4.44 577.493 4.34667 577.467 4.28C577.373 3.98667 577.407 3.68667 577.567 3.38C577.727 3.06 577.933 2.72667 578.187 2.38C578.267 2.27333 578.34 2.16 578.407 2.04C578.487 1.90667 578.553 1.79333 578.607 1.7C578.62 1.68667 578.64 1.66 578.667 1.62C578.587 1.64667 578.487 1.68667 578.367 1.74C578.26 1.79333 578.133 1.87333 577.987 1.98C577.747 2.12667 577.493 2.32 577.227 2.56C576.96 2.78667 576.687 3.02667 576.407 3.28C576.34 3.33333 576.267 3.39333 576.187 3.46C576.12 3.52667 576.053 3.59333 575.987 3.66C575.867 3.76667 575.727 3.82 575.567 3.82C575.393 3.80667 575.253 3.73333 575.147 3.6C575.027 3.48 574.973 3.34 574.987 3.18C575 3.00667 575.067 2.86667 575.187 2.76C575.253 2.69333 575.327 2.62667 575.407 2.56C575.473 2.49333 575.54 2.43333 575.607 2.38C576.033 1.99333 576.453 1.64 576.867 1.32C577.28 0.986667 577.687 0.733333 578.087 0.56C578.487 0.386666 578.873 0.353333 579.247 0.46C579.473 0.513333 579.633 0.606667 579.727 0.74C579.833 0.86 579.893 0.966666 579.907 1.06C580.027 1.35333 580 1.66667 579.827 2C579.653 2.32 579.433 2.67333 579.167 3.06C579.14 3.08667 579.107 3.13333 579.067 3.2C579.04 3.25333 579.007 3.30667 578.967 3.36C579.167 3.28 579.427 3.18 579.747 3.06C580.067 2.94 580.453 2.79333 580.907 2.62C581.08 2.56667 581.24 2.58 581.387 2.66C581.533 2.72667 581.633 2.84 581.687 3C581.753 3.14667 581.747 3.3 581.667 3.46C581.6 3.60667 581.493 3.71333 581.347 3.78C580.92 3.92667 580.533 4.06 580.187 4.18C579.84 4.3 579.547 4.40667 579.307 4.5C579.173 4.55333 579.053 4.6 578.947 4.64C578.853 4.66667 578.767 4.69333 578.687 4.72C578.593 4.74667 578.513 4.77333 578.447 4.8C578.38 4.81333 578.313 4.82 578.247 4.82ZM587.895 5.22C587.801 5.22 587.715 5.20667 587.635 5.18C587.381 5.12667 587.201 4.97333 587.095 4.72C587.015 4.49333 587.035 4.24 587.155 3.96C587.288 3.68 587.461 3.36667 587.675 3.02C587.755 2.9 587.828 2.78 587.895 2.66C587.975 2.52667 588.041 2.40667 588.095 2.3C588.121 2.26 588.141 2.22667 588.155 2.2C588.168 2.16 588.181 2.12667 588.195 2.1C587.795 2.03333 587.328 2.02 586.795 2.06C586.275 2.08667 585.688 2.18667 585.035 2.36C584.461 2.50667 583.841 2.7 583.175 2.94C582.521 3.16667 581.828 3.44 581.095 3.76C580.948 3.81333 580.801 3.81333 580.655 3.76C580.508 3.70667 580.401 3.60667 580.335 3.46C580.255 3.31333 580.248 3.16 580.315 3C580.381 2.82667 580.488 2.71333 580.635 2.66C581.381 2.32667 582.095 2.04 582.775 1.8C583.468 1.54667 584.121 1.34667 584.735 1.2C586.375 0.786666 587.715 0.72 588.755 1C589.061 1.08 589.275 1.26667 589.395 1.56C589.515 1.85333 589.488 2.18 589.315 2.54C589.141 2.9 588.935 3.27333 588.695 3.66C588.681 3.68667 588.661 3.72 588.635 3.76C588.608 3.8 588.581 3.84667 588.555 3.9C588.861 3.83333 589.315 3.7 589.915 3.5C590.515 3.3 591.341 3.00667 592.395 2.62C592.541 2.56667 592.688 2.58 592.835 2.66C592.995 2.72667 593.101 2.84 593.155 3C593.221 3.14667 593.221 3.3 593.155 3.46C593.088 3.60667 592.968 3.71333 592.795 3.78C592.181 3.99333 591.621 4.18667 591.115 4.36C590.608 4.53333 590.155 4.68 589.755 4.8C589.221 4.96 588.815 5.07333 588.535 5.14C588.255 5.19333 588.041 5.22 587.895 5.22ZM595.092 4.82C595.025 4.82 594.972 4.81333 594.932 4.8C594.719 4.74667 594.565 4.66667 594.472 4.56C594.392 4.44 594.339 4.34667 594.312 4.28C594.219 3.98667 594.252 3.68667 594.412 3.38C594.572 3.06 594.779 2.72667 595.032 2.38C595.112 2.27333 595.185 2.16 595.252 2.04C595.332 1.90667 595.399 1.79333 595.452 1.7C595.465 1.68667 595.485 1.66 595.512 1.62C595.432 1.64667 595.332 1.68667 595.212 1.74C595.105 1.79333 594.979 1.87333 594.832 1.98C594.592 2.12667 594.339 2.32 594.072 2.56C593.805 2.78667 593.532 3.02667 593.252 3.28C593.185 3.33333 593.112 3.39333 593.032 3.46C592.965 3.52667 592.899 3.59333 592.832 3.66C592.712 3.76667 592.572 3.82 592.412 3.82C592.239 3.80667 592.099 3.73333 591.992 3.6C591.872 3.48 591.819 3.34 591.832 3.18C591.845 3.00667 591.912 2.86667 592.032 2.76C592.099 2.69333 592.172 2.62667 592.252 2.56C592.319 2.49333 592.385 2.43333 592.452 2.38C592.879 1.99333 593.299 1.64 593.712 1.32C594.125 0.986667 594.532 0.733333 594.932 0.56C595.332 0.386666 595.719 0.353333 596.092 0.46C596.319 0.513333 596.479 0.606667 596.572 0.74C596.679 0.86 596.739 0.966666 596.752 1.06C596.872 1.35333 596.845 1.66667 596.672 2C596.499 2.32 596.279 2.67333 596.012 3.06C595.985 3.08667 595.952 3.13333 595.912 3.2C595.885 3.25333 595.852 3.30667 595.812 3.36C596.012 3.28 596.272 3.18 596.592 3.06C596.912 2.94 597.299 2.79333 597.752 2.62C597.925 2.56667 598.085 2.58 598.232 2.66C598.379 2.72667 598.479 2.84 598.532 3C598.599 3.14667 598.592 3.3 598.512 3.46C598.445 3.60667 598.339 3.71333 598.192 3.78C597.765 3.92667 597.379 4.06 597.032 4.18C596.685 4.3 596.392 4.40667 596.152 4.5C596.019 4.55333 595.899 4.6 595.792 4.64C595.699 4.66667 595.612 4.69333 595.532 4.72C595.439 4.74667 595.359 4.77333 595.292 4.8C595.225 4.81333 595.159 4.82 595.092 4.82ZM604.74 5.22C604.646 5.22 604.56 5.20667 604.48 5.18C604.226 5.12667 604.046 4.97333 603.94 4.72C603.86 4.49333 603.88 4.24 604 3.96C604.133 3.68 604.306 3.36667 604.52 3.02C604.6 2.9 604.673 2.78 604.74 2.66C604.82 2.52667 604.886 2.40667 604.94 2.3C604.966 2.26 604.986 2.22667 605 2.2C605.013 2.16 605.026 2.12667 605.04 2.1C604.64 2.03333 604.173 2.02 603.64 2.06C603.12 2.08667 602.533 2.18667 601.88 2.36C601.306 2.50667 600.686 2.7 600.02 2.94C599.366 3.16667 598.673 3.44 597.94 3.76C597.793 3.81333 597.646 3.81333 597.5 3.76C597.353 3.70667 597.246 3.60667 597.18 3.46C597.1 3.31333 597.093 3.16 597.16 3C597.226 2.82667 597.333 2.71333 597.48 2.66C598.226 2.32667 598.94 2.04 599.62 1.8C600.313 1.54667 600.966 1.34667 601.58 1.2C603.22 0.786666 604.56 0.72 605.6 1C605.906 1.08 606.12 1.26667 606.24 1.56C606.36 1.85333 606.333 2.18 606.16 2.54C605.986 2.9 605.78 3.27333 605.54 3.66C605.526 3.68667 605.506 3.72 605.48 3.76C605.453 3.8 605.426 3.84667 605.4 3.9C605.706 3.83333 606.16 3.7 606.76 3.5C607.36 3.3 608.186 3.00667 609.24 2.62C609.386 2.56667 609.533 2.58 609.68 2.66C609.84 2.72667 609.946 2.84 610 3C610.066 3.14667 610.066 3.3 610 3.46C609.933 3.60667 609.813 3.71333 609.64 3.78C609.026 3.99333 608.466 4.18667 607.96 4.36C607.453 4.53333 607 4.68 606.6 4.8C606.066 4.96 605.66 5.07333 605.38 5.14C605.1 5.19333 604.886 5.22 604.74 5.22ZM611.937 4.82C611.87 4.82 611.817 4.81333 611.777 4.8C611.564 4.74667 611.41 4.66667 611.317 4.56C611.237 4.44 611.184 4.34667 611.157 4.28C611.064 3.98667 611.097 3.68667 611.257 3.38C611.417 3.06 611.624 2.72667 611.877 2.38C611.957 2.27333 612.03 2.16 612.097 2.04C612.177 1.90667 612.244 1.79333 612.297 1.7C612.31 1.68667 612.33 1.66 612.357 1.62C612.277 1.64667 612.177 1.68667 612.057 1.74C611.95 1.79333 611.824 1.87333 611.677 1.98C611.437 2.12667 611.184 2.32 610.917 2.56C610.65 2.78667 610.377 3.02667 610.097 3.28C610.03 3.33333 609.957 3.39333 609.877 3.46C609.81 3.52667 609.744 3.59333 609.677 3.66C609.557 3.76667 609.417 3.82 609.257 3.82C609.084 3.80667 608.944 3.73333 608.837 3.6C608.717 3.48 608.664 3.34 608.677 3.18C608.69 3.00667 608.757 2.86667 608.877 2.76C608.944 2.69333 609.017 2.62667 609.097 2.56C609.164 2.49333 609.23 2.43333 609.297 2.38C609.724 1.99333 610.144 1.64 610.557 1.32C610.97 0.986667 611.377 0.733333 611.777 0.56C612.177 0.386666 612.564 0.353333 612.937 0.46C613.164 0.513333 613.324 0.606667 613.417 0.74C613.524 0.86 613.584 0.966666 613.597 1.06C613.717 1.35333 613.69 1.66667 613.517 2C613.344 2.32 613.124 2.67333 612.857 3.06C612.83 3.08667 612.797 3.13333 612.757 3.2C612.73 3.25333 612.697 3.30667 612.657 3.36C612.857 3.28 613.117 3.18 613.437 3.06C613.757 2.94 614.144 2.79333 614.597 2.62C614.77 2.56667 614.93 2.58 615.077 2.66C615.224 2.72667 615.324 2.84 615.377 3C615.444 3.14667 615.437 3.3 615.357 3.46C615.29 3.60667 615.184 3.71333 615.037 3.78C614.61 3.92667 614.224 4.06 613.877 4.18C613.53 4.3 613.237 4.40667 612.997 4.5C612.864 4.55333 612.744 4.6 612.637 4.64C612.544 4.66667 612.457 4.69333 612.377 4.72C612.284 4.74667 612.204 4.77333 612.137 4.8C612.07 4.81333 612.004 4.82 611.937 4.82Z" fill="#67568C"/>
</svg>
