<svg width="81" height="81" viewBox="0 0 81 81" fill="none" xmlns="http://www.w3.org/2000/svg">
<path d="M69.6094 8.85938H11.3906C9.99053 8.85938 8.85938 9.99053 8.85938 11.3906V69.6094C8.85938 71.0095 9.99053 72.1406 11.3906 72.1406H69.6094C71.0095 72.1406 72.1406 71.0095 72.1406 69.6094V11.3906C72.1406 9.99053 71.0095 8.85938 69.6094 8.85938ZM27.6302 62.7829H18.2408V32.5819H27.6302V62.7829ZM22.9395 28.4528C21.8631 28.4528 20.8109 28.1337 19.9159 27.5357C19.021 26.9377 18.3234 26.0877 17.9115 25.0933C17.4996 24.0988 17.3918 23.0046 17.6018 21.9489C17.8118 20.8932 18.3301 19.9235 19.0912 19.1624C19.8523 18.4013 20.8221 17.883 21.8777 17.673C22.9334 17.463 24.0277 17.5708 25.0221 17.9827C26.0165 18.3946 26.8665 19.0922 27.4645 19.9871C28.0625 20.8821 28.3816 21.9343 28.3816 23.0106C28.3737 26.0165 25.9374 28.4528 22.9395 28.4528ZM62.7829 62.7829H53.4015V48.0938C53.4015 44.5896 53.3382 40.0887 48.5209 40.0887C43.6403 40.0887 42.8889 43.9014 42.8889 47.8406V62.7829H33.5153V32.5819H42.5171V36.711H42.6437C43.8935 34.338 46.9547 31.8305 51.5268 31.8305C61.0348 31.8305 62.7829 38.0874 62.7829 46.219V62.7829Z" fill="#252020"/>
</svg>
